<svg width="60" height="60" viewBox="0 0 60 60" fill="none" xmlns="http://www.w3.org/2000/svg">
<path d="M39.3809 14.3189C33.6636 13.227 27.7264 13.227 22.0092 14.3189C19.4804 14.8648 16.2919 17.9219 15.7421 20.3239C14.7526 25.0188 14.7526 29.8228 15.7421 34.5177C16.4018 36.9197 19.5903 39.9768 22.0092 40.5227C22.1191 40.5227 22.2291 40.6319 22.2291 40.7411V47.6196C22.2291 47.9472 22.6688 48.1655 22.8887 47.838L26.1872 44.4533C26.1872 44.4533 28.8259 41.7237 29.2657 41.287C29.2657 41.287 29.3757 41.1778 29.4856 41.1778C32.784 41.287 36.1924 40.9595 39.4908 40.4135C42.0196 39.8676 45.2081 36.8105 45.7579 34.4085C46.7474 29.7136 46.7474 24.9096 45.7579 20.2147C45.0982 17.9219 41.9097 14.8648 39.3809 14.3189ZM39.4908 34.8452C38.9411 35.9371 38.2814 36.8105 37.1819 37.3564C36.8521 37.4656 36.5223 37.5748 36.1924 37.684C35.7526 37.5748 35.4228 37.4656 35.0929 37.3564C31.5746 35.9371 28.2762 33.9718 25.6374 31.133C24.2081 29.4953 22.9987 27.6392 22.0092 25.6739C21.5694 24.6912 21.1296 23.8178 20.7997 22.8351C20.4699 21.9617 21.0196 21.0882 21.5694 20.4331C22.1191 19.778 22.7788 19.3413 23.5484 19.0137C24.0982 18.6862 24.6479 18.9045 25.0877 19.3413C25.9673 20.4331 26.8469 21.5249 27.5065 22.7259C27.9463 23.4902 27.8364 24.3637 27.0668 24.9096C26.8469 25.0188 26.7369 25.128 26.517 25.3463C26.4071 25.4555 26.1872 25.5647 26.0772 25.7831C25.8573 26.1106 25.8573 26.4382 25.9673 26.7657C26.8469 29.2769 28.4961 31.2422 31.0249 32.334C31.4647 32.5524 31.7945 32.6616 32.3442 32.6616C33.1139 32.5524 33.4437 31.6789 33.9935 31.2422C34.5432 30.8055 35.2029 30.8055 35.8626 31.133C36.4123 31.4606 36.962 31.8973 37.6217 32.334C38.1715 32.7708 38.7212 33.0983 39.2709 33.535C39.6008 33.7534 39.7107 34.2993 39.4908 34.8452ZM34.873 26.6565C34.6531 26.6565 34.7631 26.6565 34.873 26.6565C34.4332 26.6565 34.3233 26.4382 34.2133 26.1106C34.2133 25.8922 34.2133 25.5647 34.1034 25.3463C33.9935 24.9096 33.7736 24.4729 33.3338 24.1453C33.1139 24.0361 32.894 23.927 32.6741 23.8178C32.3442 23.7086 32.1243 23.7086 31.7945 23.7086C31.4647 23.5994 31.3547 23.381 31.3547 23.0535C31.3547 22.8351 31.6846 22.6168 31.9044 22.6168C33.6636 22.7259 34.983 23.7086 35.2029 25.7831C35.2029 25.8922 35.2029 26.1106 35.2029 26.2198C35.2029 26.4382 35.0929 26.6565 34.873 26.6565ZM33.7736 21.8525C33.2238 21.6341 32.6741 21.4157 32.0144 21.3066C31.7945 21.3066 31.4647 21.1974 31.2448 21.1974C30.9149 21.1974 30.695 20.979 30.805 20.6515C30.805 20.3239 31.0249 20.1056 31.3547 20.2147C32.4542 20.3239 33.4437 20.5423 34.4332 20.979C36.4123 21.9617 37.5118 23.5994 37.8416 25.7831C37.8416 25.8922 37.8416 26.0014 37.8416 26.1106C37.8416 26.329 37.8416 26.5473 37.8416 26.8749C37.8416 26.9841 37.8416 27.0933 37.8416 27.2024C37.7317 27.6392 36.962 27.7483 36.8521 27.2024C36.8521 27.0933 36.7421 26.8749 36.7421 26.7657C36.7421 25.7831 36.5223 24.8004 36.0825 23.927C35.4228 22.9443 34.6531 22.2892 33.7736 21.8525ZM39.7107 28.4034C39.3809 28.4034 39.161 28.0759 39.161 27.7483C39.161 27.0933 39.051 26.4382 38.9411 25.7831C38.5013 22.2892 35.6427 19.4505 32.2343 18.9045C31.6846 18.7954 31.1348 18.7954 30.695 18.6862C30.3652 18.6862 29.9254 18.6862 29.8154 18.2494C29.7055 17.9219 30.0353 17.5944 30.3652 17.5944C30.4751 17.5944 30.5851 17.5944 30.5851 17.5944C35.0929 17.7035 30.805 17.5944 30.5851 17.5944C35.2029 17.7035 39.051 20.7607 39.8207 25.3463C39.9306 26.1106 40.0406 26.8749 40.0406 27.7483C40.2605 28.0759 40.0406 28.4034 39.7107 28.4034Z" fill="white"/>
</svg>
