<?xml version="1.0" encoding="UTF-8"?>
<svg width="285px" height="177px" viewBox="0 0 285 177" xmlns="http://www.w3.org/2000/svg" version="1.1">
 <g id="group">
  <path id="Путь" d="M144.254 84.4 L90.108 118.608 76.217 148.185 83.587 119.269 144.254 80.621 201.613 119.836 206.81 148.847 195.376 119.836 Z" fill="none" stroke="#ffffff" stroke-width="1" stroke-opacity="1" stroke-linejoin="round" stroke-linecap="round"/>
  <path id="Путь-1" d="M78.953 137.326 L80.843 138.082" fill="none" stroke="#ffffff" stroke-width="1" stroke-opacity="1" stroke-linejoin="round" stroke-linecap="round"/>
  <path id="Путь-2" d="M81.093 129.606 L84.117 131.307" fill="none" stroke="#ffffff" stroke-width="1" stroke-opacity="1" stroke-linejoin="round" stroke-linecap="round"/>
  <path id="Путь-3" d="M82.945 122.217 L87.48 124.296" fill="none" stroke="#ffffff" stroke-width="1" stroke-opacity="1" stroke-linejoin="round" stroke-linecap="round"/>
  <path id="Путь-4" d="M84.07 118.957 L87.85 123.682" fill="none" stroke="#ffffff" stroke-width="1" stroke-opacity="1" stroke-linejoin="round" stroke-linecap="round"/>
  <path id="Путь-5" d="M85.32 120.917 L89.856 118.271" fill="none" stroke="#ffffff" stroke-width="1" stroke-opacity="1" stroke-linejoin="round" stroke-linecap="round"/>
  <path id="Путь-6" d="M94.123 112.582 L95.635 115.039" fill="none" stroke="#ffffff" stroke-width="1" stroke-opacity="1" stroke-linejoin="round" stroke-linecap="round"/>
  <path id="Путь-7" d="M103.38 106.526 L105.08 109.171" fill="none" stroke="#ffffff" stroke-width="1" stroke-opacity="1" stroke-linejoin="round" stroke-linecap="round"/>
  <path id="Путь-8" d="M112.639 100.667 L114.34 103.313" fill="none" stroke="#ffffff" stroke-width="1" stroke-opacity="1" stroke-linejoin="round" stroke-linecap="round"/>
  <path id="Путь-9" d="M122.081 94.794 L123.782 97.251" fill="none" stroke="#ffffff" stroke-width="1" stroke-opacity="1" stroke-linejoin="round" stroke-linecap="round"/>
  <path id="Путь-10" d="M131.161 88.95 L132.862 91.596" fill="none" stroke="#ffffff" stroke-width="1" stroke-opacity="1" stroke-linejoin="round" stroke-linecap="round"/>
  <path id="Путь-11" d="M139.832 83.434 L141.722 85.891" fill="none" stroke="#ffffff" stroke-width="1" stroke-opacity="1" stroke-linejoin="round" stroke-linecap="round"/>
  <path id="Путь-12" d="M149.106 84.024 L147.405 86.481" fill="none" stroke="#ffffff" stroke-width="1" stroke-opacity="1" stroke-linejoin="round" stroke-linecap="round"/>
  <path id="Путь-13" d="M157.797 89.888 L155.908 92.534" fill="none" stroke="#ffffff" stroke-width="1" stroke-opacity="1" stroke-linejoin="round" stroke-linecap="round"/>
  <path id="Путь-14" d="M166.667 95.954 L164.588 98.6" fill="none" stroke="#ffffff" stroke-width="1" stroke-opacity="1" stroke-linejoin="round" stroke-linecap="round"/>
  <path id="Путь-15" d="M175.549 102.002 L173.471 104.648" fill="none" stroke="#ffffff" stroke-width="1" stroke-opacity="1" stroke-linejoin="round" stroke-linecap="round"/>
  <path id="Путь-16" d="M184.419 108.067 L182.151 110.712" fill="none" stroke="#ffffff" stroke-width="1" stroke-opacity="1" stroke-linejoin="round" stroke-linecap="round"/>
  <path id="Путь-17" d="M193.11 114.114 L190.842 116.76" fill="none" stroke="#ffffff" stroke-width="1" stroke-opacity="1" stroke-linejoin="round" stroke-linecap="round"/>
  <path id="Путь-18" d="M201.829 120.13 L197.86 125.61" fill="none" stroke="#ffffff" stroke-width="1" stroke-opacity="1" stroke-linejoin="round" stroke-linecap="round"/>
  <path id="Путь-19" d="M195.629 119.595 L199.787 122.052" fill="none" stroke="#ffffff" stroke-width="1" stroke-opacity="1" stroke-linejoin="round" stroke-linecap="round"/>
  <path id="Путь-20" d="M197.839 125.796 L202.186 124.095" fill="none" stroke="#ffffff" stroke-width="1" stroke-opacity="1" stroke-linejoin="round" stroke-linecap="round"/>
  <path id="Путь-21" d="M203.894 132.201 L200.87 133.524" fill="none" stroke="#ffffff" stroke-width="1" stroke-opacity="1" stroke-linejoin="round" stroke-linecap="round"/>
  <path id="Путь-22" d="M205.237 139.183 L203.347 140.128" fill="none" stroke="#ffffff" stroke-width="1" stroke-opacity="1" stroke-linejoin="round" stroke-linecap="round"/>
 </g>
 <g id="group-1">
  <path id="Путь-23" d="M144.748 72.796 L80.886 113.163 64.502 148.066 73.195 113.944 144.748 68.336 212.4 114.613 218.53 148.846 205.044 114.613 Z" fill="none" stroke="#ffffff" stroke-width="1" stroke-opacity="1" stroke-linejoin="round" stroke-linecap="round"/>
  <path id="Путь-24" d="M67.697 135.336 L69.928 136.228" fill="none" stroke="#ffffff" stroke-width="1" stroke-opacity="1" stroke-linejoin="round" stroke-linecap="round"/>
  <path id="Путь-25" d="M70.212 126.22 L73.78 128.227" fill="none" stroke="#ffffff" stroke-width="1" stroke-opacity="1" stroke-linejoin="round" stroke-linecap="round"/>
  <path id="Путь-26" d="M72.404 117.503 L77.756 119.957" fill="none" stroke="#ffffff" stroke-width="1" stroke-opacity="1" stroke-linejoin="round" stroke-linecap="round"/>
  <path id="Путь-27" d="M73.701 113.631 L78.161 119.207" fill="none" stroke="#ffffff" stroke-width="1" stroke-opacity="1" stroke-linejoin="round" stroke-linecap="round"/>
  <path id="Путь-28" d="M75.289 115.965 L80.642 112.842" fill="none" stroke="#ffffff" stroke-width="1" stroke-opacity="1" stroke-linejoin="round" stroke-linecap="round"/>
  <path id="Путь-29" d="M85.557 106.099 L87.341 108.998" fill="none" stroke="#ffffff" stroke-width="1" stroke-opacity="1" stroke-linejoin="round" stroke-linecap="round"/>
  <path id="Путь-30" d="M96.481 98.954 L98.488 102.077" fill="none" stroke="#ffffff" stroke-width="1" stroke-opacity="1" stroke-linejoin="round" stroke-linecap="round"/>
  <path id="Путь-31" d="M107.409 92.04 L109.416 95.162" fill="none" stroke="#ffffff" stroke-width="1" stroke-opacity="1" stroke-linejoin="round" stroke-linecap="round"/>
  <path id="Путь-32" d="M118.55 85.113 L120.557 88.012" fill="none" stroke="#ffffff" stroke-width="1" stroke-opacity="1" stroke-linejoin="round" stroke-linecap="round"/>
  <path id="Путь-33" d="M129.264 78.213 L131.272 81.335" fill="none" stroke="#ffffff" stroke-width="1" stroke-opacity="1" stroke-linejoin="round" stroke-linecap="round"/>
  <path id="Путь-34" d="M139.498 71.711 L141.728 74.611" fill="none" stroke="#ffffff" stroke-width="1" stroke-opacity="1" stroke-linejoin="round" stroke-linecap="round"/>
  <path id="Путь-35" d="M150.442 72.301 L148.435 75.2" fill="none" stroke="#ffffff" stroke-width="1" stroke-opacity="1" stroke-linejoin="round" stroke-linecap="round"/>
  <path id="Путь-36" d="M160.696 79.22 L158.466 82.343" fill="none" stroke="#ffffff" stroke-width="1" stroke-opacity="1" stroke-linejoin="round" stroke-linecap="round"/>
  <path id="Путь-37" d="M171.165 86.375 L168.711 89.497" fill="none" stroke="#ffffff" stroke-width="1" stroke-opacity="1" stroke-linejoin="round" stroke-linecap="round"/>
  <path id="Путь-38" d="M181.649 93.512 L179.196 96.634" fill="none" stroke="#ffffff" stroke-width="1" stroke-opacity="1" stroke-linejoin="round" stroke-linecap="round"/>
  <path id="Путь-39" d="M192.114 100.665 L189.438 103.787" fill="none" stroke="#ffffff" stroke-width="1" stroke-opacity="1" stroke-linejoin="round" stroke-linecap="round"/>
  <path id="Путь-40" d="M202.374 107.801 L199.698 110.924" fill="none" stroke="#ffffff" stroke-width="1" stroke-opacity="1" stroke-linejoin="round" stroke-linecap="round"/>
  <path id="Путь-41" d="M212.659 114.906 L207.975 121.374" fill="none" stroke="#ffffff" stroke-width="1" stroke-opacity="1" stroke-linejoin="round" stroke-linecap="round"/>
  <path id="Путь-42" d="M205.37 114.405 L210.276 117.305" fill="none" stroke="#ffffff" stroke-width="1" stroke-opacity="1" stroke-linejoin="round" stroke-linecap="round"/>
  <path id="Путь-43" d="M208.056 121.73 L213.186 119.723" fill="none" stroke="#ffffff" stroke-width="1" stroke-opacity="1" stroke-linejoin="round" stroke-linecap="round"/>
  <path id="Путь-44" d="M215.13 129.121 L211.562 130.682" fill="none" stroke="#ffffff" stroke-width="1" stroke-opacity="1" stroke-linejoin="round" stroke-linecap="round"/>
  <path id="Путь-45" d="M216.714 137.362 L214.484 138.477" fill="none" stroke="#ffffff" stroke-width="1" stroke-opacity="1" stroke-linejoin="round" stroke-linecap="round"/>
 </g>
 <g id="group-2">
  <path id="Путь-46" d="M145.092 62.442 L72.531 108.307 53.916 147.963 63.793 109.194 145.092 57.374 221.958 109.954 228.922 148.85 213.6 109.954 Z" fill="none" stroke="#ffffff" stroke-width="1" stroke-opacity="1" stroke-linejoin="round" stroke-linecap="round"/>
  <path id="Путь-47" d="M57.524 133.563 L60.058 134.576" fill="none" stroke="#ffffff" stroke-width="1" stroke-opacity="1" stroke-linejoin="round" stroke-linecap="round"/>
  <path id="Путь-48" d="M60.37 123.201 L64.424 125.482" fill="none" stroke="#ffffff" stroke-width="1" stroke-opacity="1" stroke-linejoin="round" stroke-linecap="round"/>
  <path id="Путь-49" d="M62.867 113.3 L68.948 116.088" fill="none" stroke="#ffffff" stroke-width="1" stroke-opacity="1" stroke-linejoin="round" stroke-linecap="round"/>
  <path id="Путь-50" d="M64.316 108.882 L69.384 115.216" fill="none" stroke="#ffffff" stroke-width="1" stroke-opacity="1" stroke-linejoin="round" stroke-linecap="round"/>
  <path id="Путь-51" d="M66.207 111.55 L72.288 108.002" fill="none" stroke="#ffffff" stroke-width="1" stroke-opacity="1" stroke-linejoin="round" stroke-linecap="round"/>
  <path id="Путь-52" d="M77.781 100.316 L79.809 103.61" fill="none" stroke="#ffffff" stroke-width="1" stroke-opacity="1" stroke-linejoin="round" stroke-linecap="round"/>
  <path id="Путь-53" d="M90.192 92.199 L92.473 95.747" fill="none" stroke="#ffffff" stroke-width="1" stroke-opacity="1" stroke-linejoin="round" stroke-linecap="round"/>
  <path id="Путь-54" d="M102.608 84.344 L104.889 87.892" fill="none" stroke="#ffffff" stroke-width="1" stroke-opacity="1" stroke-linejoin="round" stroke-linecap="round"/>
  <path id="Путь-55" d="M115.269 76.475 L117.549 79.769" fill="none" stroke="#ffffff" stroke-width="1" stroke-opacity="1" stroke-linejoin="round" stroke-linecap="round"/>
  <path id="Путь-56" d="M127.44 68.634 L129.721 72.181" fill="none" stroke="#ffffff" stroke-width="1" stroke-opacity="1" stroke-linejoin="round" stroke-linecap="round"/>
  <path id="Путь-57" d="M139.072 61.251 L141.606 64.545" fill="none" stroke="#ffffff" stroke-width="1" stroke-opacity="1" stroke-linejoin="round" stroke-linecap="round"/>
  <path id="Путь-58" d="M151.505 61.84 L149.224 65.134" fill="none" stroke="#ffffff" stroke-width="1" stroke-opacity="1" stroke-linejoin="round" stroke-linecap="round"/>
  <path id="Путь-59" d="M163.155 69.702 L160.621 73.249" fill="none" stroke="#ffffff" stroke-width="1" stroke-opacity="1" stroke-linejoin="round" stroke-linecap="round"/>
  <path id="Путь-60" d="M175.051 77.828 L172.264 81.376" fill="none" stroke="#ffffff" stroke-width="1" stroke-opacity="1" stroke-linejoin="round" stroke-linecap="round"/>
  <path id="Путь-61" d="M186.96 85.937 L184.172 89.484" fill="none" stroke="#ffffff" stroke-width="1" stroke-opacity="1" stroke-linejoin="round" stroke-linecap="round"/>
  <path id="Путь-62" d="M198.858 94.062 L195.817 97.61" fill="none" stroke="#ffffff" stroke-width="1" stroke-opacity="1" stroke-linejoin="round" stroke-linecap="round"/>
  <path id="Путь-63" d="M210.512 102.171 L207.472 105.719" fill="none" stroke="#ffffff" stroke-width="1" stroke-opacity="1" stroke-linejoin="round" stroke-linecap="round"/>
  <path id="Путь-64" d="M222.196 110.247 L216.875 117.596" fill="none" stroke="#ffffff" stroke-width="1" stroke-opacity="1" stroke-linejoin="round" stroke-linecap="round"/>
  <path id="Путь-65" d="M213.936 109.777 L219.511 113.071" fill="none" stroke="#ffffff" stroke-width="1" stroke-opacity="1" stroke-linejoin="round" stroke-linecap="round"/>
  <path id="Путь-66" d="M217.046 118.104 L222.874 115.823" fill="none" stroke="#ffffff" stroke-width="1" stroke-opacity="1" stroke-linejoin="round" stroke-linecap="round"/>
  <path id="Путь-67" d="M225.032 126.376 L220.978 128.15" fill="none" stroke="#ffffff" stroke-width="1" stroke-opacity="1" stroke-linejoin="round" stroke-linecap="round"/>
  <path id="Путь-68" d="M226.829 135.741 L224.295 137.008" fill="none" stroke="#ffffff" stroke-width="1" stroke-opacity="1" stroke-linejoin="round" stroke-linecap="round"/>
 </g>
 <g id="group-3">
  <path id="Путь-69" d="M145.726 47.443 L60.628 101.232 38.797 147.74 50.381 102.272 145.726 41.499 235.874 103.164 244.042 148.78 226.072 103.164 Z" fill="none" stroke="#ffffff" stroke-width="1" stroke-opacity="1" stroke-linejoin="round" stroke-linecap="round"/>
  <path id="Путь-70" d="M42.994 130.931 L45.966 132.12" fill="none" stroke="#ffffff" stroke-width="1" stroke-opacity="1" stroke-linejoin="round" stroke-linecap="round"/>
  <path id="Путь-71" d="M46.321 118.776 L51.076 121.45" fill="none" stroke="#ffffff" stroke-width="1" stroke-opacity="1" stroke-linejoin="round" stroke-linecap="round"/>
  <path id="Путь-72" d="M49.259 107.167 L56.391 110.436" fill="none" stroke="#ffffff" stroke-width="1" stroke-opacity="1" stroke-linejoin="round" stroke-linecap="round"/>
  <path id="Путь-73" d="M50.924 101.96 L56.867 109.389" fill="none" stroke="#ffffff" stroke-width="1" stroke-opacity="1" stroke-linejoin="round" stroke-linecap="round"/>
  <path id="Путь-74" d="M53.254 105.109 L60.386 100.949" fill="none" stroke="#ffffff" stroke-width="1" stroke-opacity="1" stroke-linejoin="round" stroke-linecap="round"/>
  <path id="Путь-75" d="M66.711 91.906 L69.088 95.769" fill="none" stroke="#ffffff" stroke-width="1" stroke-opacity="1" stroke-linejoin="round" stroke-linecap="round"/>
  <path id="Путь-76" d="M81.27 82.388 L83.945 86.548" fill="none" stroke="#ffffff" stroke-width="1" stroke-opacity="1" stroke-linejoin="round" stroke-linecap="round"/>
  <path id="Путь-77" d="M95.831 73.175 L98.505 77.336" fill="none" stroke="#ffffff" stroke-width="1" stroke-opacity="1" stroke-linejoin="round" stroke-linecap="round"/>
  <path id="Путь-78" d="M110.679 63.949 L113.353 67.812" fill="none" stroke="#ffffff" stroke-width="1" stroke-opacity="1" stroke-linejoin="round" stroke-linecap="round"/>
  <path id="Путь-79" d="M124.954 54.751 L127.628 58.911" fill="none" stroke="#ffffff" stroke-width="1" stroke-opacity="1" stroke-linejoin="round" stroke-linecap="round"/>
  <path id="Путь-80" d="M138.603 46.098 L141.575 49.961" fill="none" stroke="#ffffff" stroke-width="1" stroke-opacity="1" stroke-linejoin="round" stroke-linecap="round"/>
  <path id="Путь-81" d="M153.175 46.687 L150.5 50.55" fill="none" stroke="#ffffff" stroke-width="1" stroke-opacity="1" stroke-linejoin="round" stroke-linecap="round"/>
  <path id="Путь-82" d="M166.84 55.906 L163.869 60.066" fill="none" stroke="#ffffff" stroke-width="1" stroke-opacity="1" stroke-linejoin="round" stroke-linecap="round"/>
  <path id="Путь-83" d="M180.797 65.433 L177.528 69.594" fill="none" stroke="#ffffff" stroke-width="1" stroke-opacity="1" stroke-linejoin="round" stroke-linecap="round"/>
  <path id="Путь-84" d="M194.762 74.943 L191.493 79.104" fill="none" stroke="#ffffff" stroke-width="1" stroke-opacity="1" stroke-linejoin="round" stroke-linecap="round"/>
  <path id="Путь-85" d="M208.716 84.469 L205.149 88.63" fill="none" stroke="#ffffff" stroke-width="1" stroke-opacity="1" stroke-linejoin="round" stroke-linecap="round"/>
  <path id="Путь-86" d="M222.387 93.979 L218.821 98.14" fill="none" stroke="#ffffff" stroke-width="1" stroke-opacity="1" stroke-linejoin="round" stroke-linecap="round"/>
  <path id="Путь-87" d="M236.085 103.457 L229.844 112.075" fill="none" stroke="#ffffff" stroke-width="1" stroke-opacity="1" stroke-linejoin="round" stroke-linecap="round"/>
  <path id="Путь-88" d="M226.422 103.03 L232.96 106.894" fill="none" stroke="#ffffff" stroke-width="1" stroke-opacity="1" stroke-linejoin="round" stroke-linecap="round"/>
  <path id="Путь-89" d="M230.146 112.802 L236.981 110.127" fill="none" stroke="#ffffff" stroke-width="1" stroke-opacity="1" stroke-linejoin="round" stroke-linecap="round"/>
  <path id="Путь-90" d="M239.445 122.344 L234.69 124.424" fill="none" stroke="#ffffff" stroke-width="1" stroke-opacity="1" stroke-linejoin="round" stroke-linecap="round"/>
  <path id="Путь-91" d="M241.55 133.329 L238.578 134.814" fill="none" stroke="#ffffff" stroke-width="1" stroke-opacity="1" stroke-linejoin="round" stroke-linecap="round"/>
 </g>
 <g id="group-4">
  <path id="Путь-92" d="M146.523 31.024 L47.556 93.58 22.166 147.669 35.638 94.79 146.523 24.112 251.363 95.827 260.863 148.878 239.964 95.827 Z" fill="none" stroke="#ffffff" stroke-width="1" stroke-opacity="1" stroke-linejoin="round" stroke-linecap="round"/>
  <path id="Путь-93" d="M27.018 128.195 L30.474 129.578" fill="none" stroke="#ffffff" stroke-width="1" stroke-opacity="1" stroke-linejoin="round" stroke-linecap="round"/>
  <path id="Путь-94" d="M30.88 114.054 L36.41 117.165" fill="none" stroke="#ffffff" stroke-width="1" stroke-opacity="1" stroke-linejoin="round" stroke-linecap="round"/>
  <path id="Путь-95" d="M34.298 100.556 L42.593 104.358" fill="none" stroke="#ffffff" stroke-width="1" stroke-opacity="1" stroke-linejoin="round" stroke-linecap="round"/>
  <path id="Путь-96" d="M36.209 94.478 L43.121 103.118" fill="none" stroke="#ffffff" stroke-width="1" stroke-opacity="1" stroke-linejoin="round" stroke-linecap="round"/>
  <path id="Путь-97" d="M39.02 98.159 L47.314 93.321" fill="none" stroke="#ffffff" stroke-width="1" stroke-opacity="1" stroke-linejoin="round" stroke-linecap="round"/>
  <path id="Путь-98" d="M54.561 82.776 L57.326 87.27" fill="none" stroke="#ffffff" stroke-width="1" stroke-opacity="1" stroke-linejoin="round" stroke-linecap="round"/>
  <path id="Путь-99" d="M71.491 71.709 L74.601 76.548" fill="none" stroke="#ffffff" stroke-width="1" stroke-opacity="1" stroke-linejoin="round" stroke-linecap="round"/>
  <path id="Путь-100" d="M88.424 60.995 L91.535 65.833" fill="none" stroke="#ffffff" stroke-width="1" stroke-opacity="1" stroke-linejoin="round" stroke-linecap="round"/>
  <path id="Путь-101" d="M105.698 50.267 L108.809 54.76" fill="none" stroke="#ffffff" stroke-width="1" stroke-opacity="1" stroke-linejoin="round" stroke-linecap="round"/>
  <path id="Путь-102" d="M122.296 39.567 L125.406 44.406" fill="none" stroke="#ffffff" stroke-width="1" stroke-opacity="1" stroke-linejoin="round" stroke-linecap="round"/>
  <path id="Путь-103" d="M138.17 29.51 L141.626 34.003" fill="none" stroke="#ffffff" stroke-width="1" stroke-opacity="1" stroke-linejoin="round" stroke-linecap="round"/>
  <path id="Путь-104" d="M155.118 30.099 L152.008 34.592" fill="none" stroke="#ffffff" stroke-width="1" stroke-opacity="1" stroke-linejoin="round" stroke-linecap="round"/>
  <path id="Путь-105" d="M171.014 40.819 L167.558 45.658" fill="none" stroke="#ffffff" stroke-width="1" stroke-opacity="1" stroke-linejoin="round" stroke-linecap="round"/>
  <path id="Путь-106" d="M187.243 51.897 L183.441 56.736" fill="none" stroke="#ffffff" stroke-width="1" stroke-opacity="1" stroke-linejoin="round" stroke-linecap="round"/>
  <path id="Путь-107" d="M203.487 62.957 L199.685 67.795" fill="none" stroke="#ffffff" stroke-width="1" stroke-opacity="1" stroke-linejoin="round" stroke-linecap="round"/>
  <path id="Путь-108" d="M219.719 74.033 L215.572 78.871" fill="none" stroke="#ffffff" stroke-width="1" stroke-opacity="1" stroke-linejoin="round" stroke-linecap="round"/>
  <path id="Путь-109" d="M235.618 85.092 L231.471 89.931" fill="none" stroke="#ffffff" stroke-width="1" stroke-opacity="1" stroke-linejoin="round" stroke-linecap="round"/>
  <path id="Путь-110" d="M251.54 96.12 L244.282 106.143" fill="none" stroke="#ffffff" stroke-width="1" stroke-opacity="1" stroke-linejoin="round" stroke-linecap="round"/>
  <path id="Путь-111" d="M240.331 95.742 L247.934 100.235" fill="none" stroke="#ffffff" stroke-width="1" stroke-opacity="1" stroke-linejoin="round" stroke-linecap="round"/>
  <path id="Путь-112" d="M244.732 107.112 L252.681 104.001" fill="none" stroke="#ffffff" stroke-width="1" stroke-opacity="1" stroke-linejoin="round" stroke-linecap="round"/>
  <path id="Путь-113" d="M255.482 118.059 L249.952 120.478" fill="none" stroke="#ffffff" stroke-width="1" stroke-opacity="1" stroke-linejoin="round" stroke-linecap="round"/>
  <path id="Путь-114" d="M257.925 130.835 L254.469 132.563" fill="none" stroke="#ffffff" stroke-width="1" stroke-opacity="1" stroke-linejoin="round" stroke-linecap="round"/>
 </g>
 <g id="group-5">
  <path id="Путь-115" d="M147.397 10.137 L30.889 83.78 1 147.455 16.86 85.204 147.397 2 270.817 86.425 282 148.879 257.397 86.425 Z" fill="none" stroke="#ffffff" stroke-width="1" stroke-opacity="1" stroke-linejoin="round" stroke-linecap="round"/>
  <path id="Путь-116" d="M6.676 124.613 L10.745 126.24" fill="none" stroke="#ffffff" stroke-width="1" stroke-opacity="1" stroke-linejoin="round" stroke-linecap="round"/>
  <path id="Путь-117" d="M11.214 107.96 L17.724 111.622" fill="none" stroke="#ffffff" stroke-width="1" stroke-opacity="1" stroke-linejoin="round" stroke-linecap="round"/>
  <path id="Путь-118" d="M15.247 92.073 L25.012 96.548" fill="none" stroke="#ffffff" stroke-width="1" stroke-opacity="1" stroke-linejoin="round" stroke-linecap="round"/>
  <path id="Путь-119" d="M17.463 84.892 L25.6 95.063" fill="none" stroke="#ffffff" stroke-width="1" stroke-opacity="1" stroke-linejoin="round" stroke-linecap="round"/>
  <path id="Путь-120" d="M20.887 89.248 L30.652 83.552" fill="none" stroke="#ffffff" stroke-width="1" stroke-opacity="1" stroke-linejoin="round" stroke-linecap="round"/>
  <path id="Путь-121" d="M39.061 71.109 L42.315 76.398" fill="none" stroke="#ffffff" stroke-width="1" stroke-opacity="1" stroke-linejoin="round" stroke-linecap="round"/>
  <path id="Путь-122" d="M58.993 58.081 L62.655 63.777" fill="none" stroke="#ffffff" stroke-width="1" stroke-opacity="1" stroke-linejoin="round" stroke-linecap="round"/>
  <path id="Путь-123" d="M78.928 45.467 L82.59 51.163" fill="none" stroke="#ffffff" stroke-width="1" stroke-opacity="1" stroke-linejoin="round" stroke-linecap="round"/>
  <path id="Путь-124" d="M99.263 32.84 L102.924 38.13" fill="none" stroke="#ffffff" stroke-width="1" stroke-opacity="1" stroke-linejoin="round" stroke-linecap="round"/>
  <path id="Путь-125" d="M118.801 20.242 L122.463 25.938" fill="none" stroke="#ffffff" stroke-width="1" stroke-opacity="1" stroke-linejoin="round" stroke-linecap="round"/>
  <path id="Путь-126" d="M137.492 8.409 L141.561 13.698" fill="none" stroke="#ffffff" stroke-width="1" stroke-opacity="1" stroke-linejoin="round" stroke-linecap="round"/>
  <path id="Путь-127" d="M157.442 8.998 L153.781 14.287" fill="none" stroke="#ffffff" stroke-width="1" stroke-opacity="1" stroke-linejoin="round" stroke-linecap="round"/>
  <path id="Путь-128" d="M176.155 21.616 L172.086 27.312" fill="none" stroke="#ffffff" stroke-width="1" stroke-opacity="1" stroke-linejoin="round" stroke-linecap="round"/>
  <path id="Путь-129" d="M195.264 34.655 L190.789 40.351" fill="none" stroke="#ffffff" stroke-width="1" stroke-opacity="1" stroke-linejoin="round" stroke-linecap="round"/>
  <path id="Путь-130" d="M214.389 47.674 L209.914 53.37" fill="none" stroke="#ffffff" stroke-width="1" stroke-opacity="1" stroke-linejoin="round" stroke-linecap="round"/>
  <path id="Путь-131" d="M233.497 60.711 L228.614 66.407" fill="none" stroke="#ffffff" stroke-width="1" stroke-opacity="1" stroke-linejoin="round" stroke-linecap="round"/>
  <path id="Путь-132" d="M252.212 73.73 L247.329 79.426" fill="none" stroke="#ffffff" stroke-width="1" stroke-opacity="1" stroke-linejoin="round" stroke-linecap="round"/>
  <path id="Путь-133" d="M270.954 86.718 L262.41 98.517" fill="none" stroke="#ffffff" stroke-width="1" stroke-opacity="1" stroke-linejoin="round" stroke-linecap="round"/>
  <path id="Путь-134" d="M257.784 86.401 L266.735 91.69" fill="none" stroke="#ffffff" stroke-width="1" stroke-opacity="1" stroke-linejoin="round" stroke-linecap="round"/>
  <path id="Путь-135" d="M263.042 99.792 L272.4 96.13" fill="none" stroke="#ffffff" stroke-width="1" stroke-opacity="1" stroke-linejoin="round" stroke-linecap="round"/>
  <path id="Путь-136" d="M275.63 112.515 L269.12 115.363" fill="none" stroke="#ffffff" stroke-width="1" stroke-opacity="1" stroke-linejoin="round" stroke-linecap="round"/>
  <path id="Путь-137" d="M278.503 127.558 L274.434 129.592" fill="none" stroke="#ffffff" stroke-width="1" stroke-opacity="1" stroke-linejoin="round" stroke-linecap="round"/>
  <path id="Путь-138" d="M144.223 84.503 L144.223 80.691 144.767 72.931 144.767 68.389 145.04 62.448 145.04 57.41 145.72 47.472 145.72 41.543 146.537 30.999 146.537 24.095 147.354 10.169 147.354 2" fill="none" stroke="#ffffff" stroke-width="1" stroke-opacity="1" stroke-linejoin="round" stroke-linecap="round"/>
 </g>
 <path id="Путь-139" d="M201.539 119.9 L212.431 114.59 221.961 109.962 235.847 103.154 251.368 95.803 270.836 86.409" fill="none" stroke="#ffffff" stroke-width="1" stroke-opacity="1" stroke-linejoin="round" stroke-linecap="round"/>
 <path id="Путь-140" d="M83.638 119.219 L73.155 113.91 63.761 109.145 50.419 102.202 35.715 94.714 16.928 85.184" fill="none" stroke="#ffffff" stroke-width="1" stroke-opacity="1" stroke-linejoin="round" stroke-linecap="round"/>
 <path id="Путь-141" d="M2.94 174 L2.94 159.72 13.66 159.72 13.66 174 11.88 174 11.88 161.3 4.74 161.3 4.74 174 Z M41.149 159.72 C43.016 159.72 44.376 160.087 45.229 160.82 46.082 161.553 46.509 162.587 46.509 163.92 46.509 164.507 46.409 165.073 46.209 165.62 46.022 166.153 45.709 166.633 45.269 167.06 44.829 167.487 44.242 167.827 43.509 168.08 42.776 168.32 41.876 168.44 40.809 168.44 L39.169 168.44 39.169 174 37.369 174 37.369 159.72 Z M40.989 161.26 L39.169 161.26 39.169 166.9 40.609 166.9 C41.516 166.9 42.269 166.807 42.869 166.62 43.469 166.42 43.916 166.107 44.209 165.68 44.502 165.253 44.649 164.693 44.649 164 44.649 163.08 44.356 162.393 43.769 161.94 43.182 161.487 42.256 161.26 40.989 161.26 Z M81.738 166.84 C81.738 167.947 81.598 168.953 81.318 169.86 81.038 170.753 80.618 171.527 80.058 172.18 79.512 172.833 78.825 173.333 77.998 173.68 77.185 174.027 76.238 174.2 75.158 174.2 74.038 174.2 73.065 174.027 72.238 173.68 71.412 173.32 70.725 172.82 70.178 172.18 69.632 171.527 69.225 170.747 68.958 169.84 68.692 168.933 68.558 167.927 68.558 166.82 68.558 165.353 68.798 164.073 69.278 162.98 69.758 161.887 70.485 161.033 71.458 160.42 72.445 159.807 73.685 159.5 75.178 159.5 76.605 159.5 77.805 159.807 78.778 160.42 79.752 161.02 80.485 161.873 80.978 162.98 81.485 164.073 81.738 165.36 81.738 166.84 Z M70.458 166.84 C70.458 168.04 70.625 169.073 70.958 169.94 71.292 170.807 71.805 171.473 72.498 171.94 73.205 172.407 74.092 172.64 75.158 172.64 76.238 172.64 77.118 172.407 77.798 171.94 78.492 171.473 79.005 170.807 79.338 169.94 79.672 169.073 79.838 168.04 79.838 166.84 79.838 165.04 79.465 163.633 78.718 162.62 77.972 161.593 76.792 161.08 75.178 161.08 74.098 161.08 73.205 161.313 72.498 161.78 71.805 162.233 71.292 162.893 70.958 163.76 70.625 164.613 70.458 165.64 70.458 166.84 Z M111.683 159.52 L111.683 161.28 C113.23 161.307 114.45 161.56 115.343 162.04 116.237 162.52 116.87 163.16 117.243 163.96 117.617 164.747 117.803 165.627 117.803 166.6 117.803 167.24 117.703 167.88 117.503 168.52 117.317 169.147 116.99 169.72 116.523 170.24 116.057 170.747 115.43 171.16 114.643 171.48 113.857 171.8 112.87 171.973 111.683 172 L111.683 174.2 109.903 174.2 109.903 172 C108.69 171.973 107.683 171.8 106.883 171.48 106.097 171.147 105.477 170.72 105.023 170.2 104.57 169.667 104.25 169.087 104.063 168.46 103.877 167.833 103.783 167.213 103.783 166.6 103.783 165.893 103.883 165.227 104.083 164.6 104.297 163.96 104.637 163.4 105.103 162.92 105.583 162.427 106.217 162.033 107.003 161.74 107.79 161.447 108.757 161.293 109.903 161.28 L109.903 159.52 Z M109.903 162.8 C108.837 162.827 107.983 163 107.343 163.32 106.717 163.64 106.27 164.08 106.003 164.64 105.737 165.187 105.603 165.833 105.603 166.58 105.603 167.367 105.75 168.053 106.043 168.64 106.35 169.213 106.817 169.66 107.443 169.98 108.083 170.3 108.903 170.48 109.903 170.52 Z M111.683 170.52 C112.71 170.48 113.537 170.293 114.163 169.96 114.803 169.627 115.263 169.173 115.543 168.6 115.837 168.013 115.983 167.34 115.983 166.58 115.983 165.82 115.85 165.167 115.583 164.62 115.317 164.06 114.87 163.627 114.243 163.32 113.617 163 112.763 162.827 111.683 162.8 Z M146.697 161.1 C145.937 161.1 145.251 161.233 144.637 161.5 144.024 161.753 143.504 162.133 143.077 162.64 142.651 163.133 142.324 163.74 142.097 164.46 141.871 165.167 141.757 165.967 141.757 166.86 141.757 168.033 141.937 169.053 142.297 169.92 142.671 170.787 143.217 171.453 143.937 171.92 144.671 172.387 145.584 172.62 146.677 172.62 147.304 172.62 147.897 172.567 148.457 172.46 149.017 172.353 149.564 172.22 150.097 172.06 L150.097 173.62 C149.564 173.82 149.011 173.967 148.437 174.06 147.877 174.153 147.204 174.2 146.417 174.2 144.964 174.2 143.751 173.9 142.777 173.3 141.804 172.7 141.071 171.847 140.577 170.74 140.097 169.633 139.857 168.333 139.857 166.84 139.857 165.76 140.004 164.773 140.297 163.88 140.604 162.987 141.044 162.213 141.617 161.56 142.204 160.907 142.924 160.407 143.777 160.06 144.631 159.7 145.611 159.52 146.717 159.52 147.451 159.52 148.157 159.593 148.837 159.74 149.517 159.887 150.124 160.093 150.657 160.36 L149.937 161.88 C149.497 161.68 149.004 161.5 148.457 161.34 147.924 161.18 147.337 161.1 146.697 161.1 Z M177.534 174 L175.734 174 175.734 161.3 171.274 161.3 171.274 159.72 181.974 159.72 181.974 161.3 177.534 161.3 Z M207.707 159.72 C209.574 159.72 210.934 160.087 211.787 160.82 212.641 161.553 213.067 162.587 213.067 163.92 213.067 164.507 212.967 165.073 212.767 165.62 212.581 166.153 212.267 166.633 211.827 167.06 211.387 167.487 210.801 167.827 210.067 168.08 209.334 168.32 208.434 168.44 207.367 168.44 L205.727 168.44 205.727 174 203.927 174 203.927 159.72 Z M207.547 161.26 L205.727 161.26 205.727 166.9 207.167 166.9 C208.074 166.9 208.827 166.807 209.427 166.62 210.027 166.42 210.474 166.107 210.767 165.68 211.061 165.253 211.207 164.693 211.207 164 211.207 163.08 210.914 162.393 210.327 161.94 209.741 161.487 208.814 161.26 207.547 161.26 Z M248.297 166.84 C248.297 167.947 248.157 168.953 247.877 169.86 247.597 170.753 247.177 171.527 246.617 172.18 246.07 172.833 245.384 173.333 244.557 173.68 243.744 174.027 242.797 174.2 241.717 174.2 240.597 174.2 239.624 174.027 238.797 173.68 237.97 173.32 237.284 172.82 236.737 172.18 236.19 171.527 235.784 170.747 235.517 169.84 235.25 168.933 235.117 167.927 235.117 166.82 235.117 165.353 235.357 164.073 235.837 162.98 236.317 161.887 237.044 161.033 238.017 160.42 239.004 159.807 240.244 159.5 241.737 159.5 243.164 159.5 244.364 159.807 245.337 160.42 246.31 161.02 247.044 161.873 247.537 162.98 248.044 164.073 248.297 165.36 248.297 166.84 Z M237.017 166.84 C237.017 168.04 237.184 169.073 237.517 169.94 237.85 170.807 238.364 171.473 239.057 171.94 239.764 172.407 240.65 172.64 241.717 172.64 242.797 172.64 243.677 172.407 244.357 171.94 245.05 171.473 245.564 170.807 245.897 169.94 246.23 169.073 246.397 168.04 246.397 166.84 246.397 165.04 246.024 163.633 245.277 162.62 244.53 161.593 243.35 161.08 241.737 161.08 240.657 161.08 239.764 161.313 239.057 161.78 238.364 162.233 237.85 162.893 237.517 163.76 237.184 164.613 237.017 165.64 237.017 166.84 Z M281.002 155.28 C280.949 155.947 280.782 156.507 280.502 156.96 280.235 157.413 279.835 157.753 279.302 157.98 278.769 158.207 278.075 158.32 277.222 158.32 276.355 158.32 275.655 158.207 275.122 157.98 274.602 157.753 274.222 157.42 273.982 156.98 273.742 156.527 273.595 155.96 273.542 155.28 L275.182 155.28 C275.249 156 275.435 156.487 275.742 156.74 276.062 156.98 276.569 157.1 277.262 157.1 277.875 157.1 278.355 156.973 278.702 156.72 279.062 156.453 279.275 155.973 279.342 155.28 Z M271.282 159.72 L272.962 159.72 272.962 167.56 C272.962 167.893 272.955 168.26 272.942 168.66 272.942 169.047 272.935 169.433 272.922 169.82 272.909 170.207 272.889 170.553 272.862 170.86 272.849 171.153 272.835 171.38 272.822 171.54 L272.902 171.54 280.762 159.72 282.762 159.72 282.762 174 281.082 174 281.082 166.24 C281.082 165.88 281.089 165.493 281.102 165.08 281.115 164.653 281.129 164.247 281.142 163.86 281.169 163.46 281.189 163.107 281.202 162.8 281.215 162.493 281.229 162.267 281.242 162.12 L281.162 162.12 273.282 174 271.282 174 Z" fill="#ffffff" fill-opacity="1" stroke="none"/>
</svg>
