<?xml version="1.0" encoding="UTF-8"?>
<svg width="100px" height="64px" viewBox="0 0 100 64" xmlns="http://www.w3.org/2000/svg" version="1.1">
 <path id="Путь" d="M1.776 63 L1.776 57.288 6.064 57.288 6.064 63 5.352 63 5.352 57.92 2.496 57.92 2.496 63 Z M15.14 57.288 C15.886 57.288 16.43 57.435 16.772 57.728 17.113 58.021 17.284 58.435 17.284 58.968 17.284 59.203 17.244 59.429 17.164 59.648 17.089 59.861 16.964 60.053 16.788 60.224 16.612 60.395 16.377 60.531 16.084 60.632 15.79 60.728 15.43 60.776 15.004 60.776 L14.348 60.776 14.348 63 13.628 63 13.628 57.288 Z M15.076 57.904 L14.348 57.904 14.348 60.16 14.924 60.16 C15.286 60.16 15.588 60.123 15.828 60.048 16.068 59.968 16.246 59.843 16.364 59.672 16.481 59.501 16.54 59.277 16.54 59 16.54 58.632 16.422 58.357 16.188 58.176 15.953 57.995 15.582 57.904 15.076 57.904 Z M29.455 60.136 C29.455 60.579 29.399 60.981 29.287 61.344 29.175 61.701 29.007 62.011 28.783 62.272 28.565 62.533 28.29 62.733 27.959 62.872 27.634 63.011 27.255 63.08 26.823 63.08 26.375 63.08 25.986 63.011 25.655 62.872 25.325 62.728 25.05 62.528 24.831 62.272 24.613 62.011 24.45 61.699 24.343 61.336 24.237 60.973 24.183 60.571 24.183 60.128 24.183 59.541 24.279 59.029 24.471 58.592 24.663 58.155 24.954 57.813 25.343 57.568 25.738 57.323 26.234 57.2 26.831 57.2 27.402 57.2 27.882 57.323 28.271 57.568 28.661 57.808 28.954 58.149 29.151 58.592 29.354 59.029 29.455 59.544 29.455 60.136 Z M24.943 60.136 C24.943 60.616 25.01 61.029 25.143 61.376 25.277 61.723 25.482 61.989 25.759 62.176 26.042 62.363 26.397 62.456 26.823 62.456 27.255 62.456 27.607 62.363 27.879 62.176 28.157 61.989 28.362 61.723 28.495 61.376 28.629 61.029 28.695 60.616 28.695 60.136 28.695 59.416 28.546 58.853 28.247 58.448 27.949 58.037 27.477 57.832 26.831 57.832 26.399 57.832 26.042 57.925 25.759 58.112 25.482 58.293 25.277 58.557 25.143 58.904 25.01 59.245 24.943 59.656 24.943 60.136 Z M39.513 57.208 L39.513 57.912 C40.132 57.923 40.62 58.024 40.977 58.216 41.335 58.408 41.588 58.664 41.737 58.984 41.887 59.299 41.961 59.651 41.961 60.04 41.961 60.296 41.921 60.552 41.841 60.808 41.767 61.059 41.636 61.288 41.449 61.496 41.263 61.699 41.012 61.864 40.697 61.992 40.383 62.12 39.988 62.189 39.513 62.2 L39.513 63.08 38.801 63.08 38.801 62.2 C38.316 62.189 37.913 62.12 37.593 61.992 37.279 61.859 37.031 61.688 36.849 61.48 36.668 61.267 36.54 61.035 36.465 60.784 36.391 60.533 36.353 60.285 36.353 60.04 36.353 59.757 36.393 59.491 36.473 59.24 36.559 58.984 36.695 58.76 36.881 58.568 37.073 58.371 37.327 58.213 37.641 58.096 37.956 57.979 38.343 57.917 38.801 57.912 L38.801 57.208 Z M38.801 58.52 C38.375 58.531 38.033 58.6 37.777 58.728 37.527 58.856 37.348 59.032 37.241 59.256 37.135 59.475 37.081 59.733 37.081 60.032 37.081 60.347 37.14 60.621 37.257 60.856 37.38 61.085 37.567 61.264 37.817 61.392 38.073 61.52 38.401 61.592 38.801 61.608 Z M39.513 61.608 C39.924 61.592 40.255 61.517 40.505 61.384 40.761 61.251 40.945 61.069 41.057 60.84 41.175 60.605 41.233 60.336 41.233 60.032 41.233 59.728 41.18 59.467 41.073 59.248 40.967 59.024 40.788 58.851 40.537 58.728 40.287 58.6 39.945 58.531 39.513 58.52 Z M51.599 57.84 C51.295 57.84 51.02 57.893 50.775 58 50.53 58.101 50.322 58.253 50.151 58.456 49.98 58.653 49.85 58.896 49.759 59.184 49.668 59.467 49.623 59.787 49.623 60.144 49.623 60.613 49.695 61.021 49.839 61.368 49.988 61.715 50.207 61.981 50.495 62.168 50.788 62.355 51.154 62.448 51.591 62.448 51.842 62.448 52.079 62.427 52.303 62.384 52.527 62.341 52.746 62.288 52.959 62.224 L52.959 62.848 C52.746 62.928 52.524 62.987 52.295 63.024 52.071 63.061 51.802 63.08 51.487 63.08 50.906 63.08 50.42 62.96 50.031 62.72 49.642 62.48 49.348 62.139 49.151 61.696 48.959 61.253 48.863 60.733 48.863 60.136 48.863 59.704 48.922 59.309 49.039 58.952 49.162 58.595 49.338 58.285 49.567 58.024 49.802 57.763 50.09 57.563 50.431 57.424 50.772 57.28 51.164 57.208 51.607 57.208 51.9 57.208 52.183 57.237 52.455 57.296 52.727 57.355 52.97 57.437 53.183 57.544 L52.895 58.152 C52.719 58.072 52.522 58 52.303 57.936 52.09 57.872 51.855 57.84 51.599 57.84 Z M62.014 63 L61.294 63 61.294 57.92 59.51 57.92 59.51 57.288 63.79 57.288 63.79 57.92 62.014 57.92 Z M72.163 57.288 C72.91 57.288 73.454 57.435 73.795 57.728 74.136 58.021 74.307 58.435 74.307 58.968 74.307 59.203 74.267 59.429 74.187 59.648 74.112 59.861 73.987 60.053 73.811 60.224 73.635 60.395 73.4 60.531 73.107 60.632 72.814 60.728 72.454 60.776 72.027 60.776 L71.371 60.776 71.371 63 70.651 63 70.651 57.288 Z M72.099 57.904 L71.371 57.904 71.371 60.16 71.947 60.16 C72.31 60.16 72.611 60.123 72.851 60.048 73.091 59.968 73.27 59.843 73.387 59.672 73.504 59.501 73.563 59.277 73.563 59 73.563 58.632 73.446 58.357 73.211 58.176 72.976 57.995 72.606 57.904 72.099 57.904 Z M86.479 60.136 C86.479 60.579 86.423 60.981 86.311 61.344 86.199 61.701 86.031 62.011 85.807 62.272 85.588 62.533 85.313 62.733 84.983 62.872 84.657 63.011 84.279 63.08 83.847 63.08 83.399 63.08 83.009 63.011 82.679 62.872 82.348 62.728 82.073 62.528 81.855 62.272 81.636 62.011 81.473 61.699 81.367 61.336 81.26 60.973 81.207 60.571 81.207 60.128 81.207 59.541 81.303 59.029 81.495 58.592 81.687 58.155 81.977 57.813 82.367 57.568 82.761 57.323 83.257 57.2 83.855 57.2 84.425 57.2 84.905 57.323 85.295 57.568 85.684 57.808 85.977 58.149 86.175 58.592 86.377 59.029 86.479 59.544 86.479 60.136 Z M81.967 60.136 C81.967 60.616 82.033 61.029 82.167 61.376 82.3 61.723 82.505 61.989 82.783 62.176 83.065 62.363 83.42 62.456 83.847 62.456 84.279 62.456 84.631 62.363 84.903 62.176 85.18 61.989 85.385 61.723 85.519 61.376 85.652 61.029 85.719 60.616 85.719 60.136 85.719 59.416 85.569 58.853 85.271 58.448 84.972 58.037 84.5 57.832 83.855 57.832 83.423 57.832 83.065 57.925 82.783 58.112 82.505 58.293 82.3 58.557 82.167 58.904 82.033 59.245 81.967 59.656 81.967 60.136 Z M97.641 55.512 C97.619 55.779 97.553 56.003 97.441 56.184 97.334 56.365 97.174 56.501 96.961 56.592 96.747 56.683 96.47 56.728 96.129 56.728 95.782 56.728 95.502 56.683 95.289 56.592 95.081 56.501 94.929 56.368 94.833 56.192 94.737 56.011 94.678 55.784 94.657 55.512 L95.313 55.512 C95.339 55.8 95.414 55.995 95.537 56.096 95.665 56.192 95.867 56.24 96.145 56.24 96.39 56.24 96.582 56.189 96.721 56.088 96.865 55.981 96.95 55.789 96.977 55.512 Z M93.753 57.288 L94.425 57.288 94.425 60.424 C94.425 60.557 94.422 60.704 94.417 60.864 94.417 61.019 94.414 61.173 94.409 61.328 94.403 61.483 94.395 61.621 94.385 61.744 94.379 61.861 94.374 61.952 94.369 62.016 L94.401 62.016 97.545 57.288 98.345 57.288 98.345 63 97.673 63 97.673 59.896 C97.673 59.752 97.675 59.597 97.681 59.432 97.686 59.261 97.691 59.099 97.697 58.944 97.707 58.784 97.715 58.643 97.721 58.52 97.726 58.397 97.731 58.307 97.737 58.248 L97.705 58.248 94.553 63 93.753 63 Z" fill="#ffffff" fill-opacity="1" stroke="none"/>
 <g id="group">
  <path id="Путь-1" d="M52.039 29.758 L33.155 41.697 28.31 52.02 30.881 41.928 52.039 28.439 72.043 42.126 73.855 52.25 69.868 42.126 Z" fill="none" stroke="#ffffff" stroke-width="0.3" stroke-opacity="1" stroke-linejoin="round" stroke-linecap="round"/>
  <path id="Путь-2" d="M29.257 48.252 L29.916 48.516" fill="none" stroke="#ffffff" stroke-width="0.3" stroke-opacity="1" stroke-linejoin="round" stroke-linecap="round"/>
  <path id="Путь-3" d="M29.999 45.557 L31.054 46.15" fill="none" stroke="#ffffff" stroke-width="0.3" stroke-opacity="1" stroke-linejoin="round" stroke-linecap="round"/>
  <path id="Путь-4" d="M30.646 42.979 L32.228 43.704" fill="none" stroke="#ffffff" stroke-width="0.3" stroke-opacity="1" stroke-linejoin="round" stroke-linecap="round"/>
  <path id="Путь-5" d="M31.029 41.834 L32.347 43.483" fill="none" stroke="#ffffff" stroke-width="0.3" stroke-opacity="1" stroke-linejoin="round" stroke-linecap="round"/>
  <path id="Путь-6" d="M31.499 42.524 L33.081 41.6" fill="none" stroke="#ffffff" stroke-width="0.3" stroke-opacity="1" stroke-linejoin="round" stroke-linecap="round"/>
  <path id="Путь-7" d="M34.534 39.606 L35.061 40.464" fill="none" stroke="#ffffff" stroke-width="0.3" stroke-opacity="1" stroke-linejoin="round" stroke-linecap="round"/>
  <path id="Путь-8" d="M37.763 37.493 L38.356 38.417" fill="none" stroke="#ffffff" stroke-width="0.3" stroke-opacity="1" stroke-linejoin="round" stroke-linecap="round"/>
  <path id="Путь-9" d="M40.993 35.449 L41.587 36.372" fill="none" stroke="#ffffff" stroke-width="0.3" stroke-opacity="1" stroke-linejoin="round" stroke-linecap="round"/>
  <path id="Путь-10" d="M44.285 33.4 L44.879 34.257" fill="none" stroke="#ffffff" stroke-width="0.3" stroke-opacity="1" stroke-linejoin="round" stroke-linecap="round"/>
  <path id="Путь-11" d="M47.452 31.359 L48.046 32.283" fill="none" stroke="#ffffff" stroke-width="0.3" stroke-opacity="1" stroke-linejoin="round" stroke-linecap="round"/>
  <path id="Путь-12" d="M50.478 29.436 L51.137 30.293" fill="none" stroke="#ffffff" stroke-width="0.3" stroke-opacity="1" stroke-linejoin="round" stroke-linecap="round"/>
  <path id="Путь-13" d="M53.711 29.613 L53.118 30.47" fill="none" stroke="#ffffff" stroke-width="0.3" stroke-opacity="1" stroke-linejoin="round" stroke-linecap="round"/>
  <path id="Путь-14" d="M56.741 31.659 L56.082 32.583" fill="none" stroke="#ffffff" stroke-width="0.3" stroke-opacity="1" stroke-linejoin="round" stroke-linecap="round"/>
  <path id="Путь-15" d="M59.835 33.776 L59.11 34.699" fill="none" stroke="#ffffff" stroke-width="0.3" stroke-opacity="1" stroke-linejoin="round" stroke-linecap="round"/>
  <path id="Путь-16" d="M62.934 35.886 L62.209 36.81" fill="none" stroke="#ffffff" stroke-width="0.3" stroke-opacity="1" stroke-linejoin="round" stroke-linecap="round"/>
  <path id="Путь-17" d="M66.028 38.002 L65.237 38.925" fill="none" stroke="#ffffff" stroke-width="0.3" stroke-opacity="1" stroke-linejoin="round" stroke-linecap="round"/>
  <path id="Путь-18" d="M69.059 40.113 L68.268 41.036" fill="none" stroke="#ffffff" stroke-width="0.3" stroke-opacity="1" stroke-linejoin="round" stroke-linecap="round"/>
  <path id="Путь-19" d="M72.1 42.214 L70.716 44.126" fill="none" stroke="#ffffff" stroke-width="0.3" stroke-opacity="1" stroke-linejoin="round" stroke-linecap="round"/>
  <path id="Путь-20" d="M69.943 42.063 L71.394 42.92" fill="none" stroke="#ffffff" stroke-width="0.3" stroke-opacity="1" stroke-linejoin="round" stroke-linecap="round"/>
  <path id="Путь-21" d="M70.736 44.229 L72.252 43.635" fill="none" stroke="#ffffff" stroke-width="0.3" stroke-opacity="1" stroke-linejoin="round" stroke-linecap="round"/>
  <path id="Путь-22" d="M72.828 46.419 L71.773 46.88" fill="none" stroke="#ffffff" stroke-width="0.3" stroke-opacity="1" stroke-linejoin="round" stroke-linecap="round"/>
  <path id="Путь-23" d="M73.296 48.856 L72.636 49.186" fill="none" stroke="#ffffff" stroke-width="0.3" stroke-opacity="1" stroke-linejoin="round" stroke-linecap="round"/>
 </g>
 <path id="Путь-24" d="M52.045 25.708 L29.772 39.797 24.059 51.978 27.09 40.069 52.045 24.152 75.639 40.303 77.777 52.25 73.073 40.303 Z" fill="none" stroke="#ffffff" stroke-width="0.3" stroke-opacity="1" stroke-linejoin="round" stroke-linecap="round"/>
 <path id="Путь-25" d="M25.165 47.558 L25.943 47.869" fill="none" stroke="#ffffff" stroke-width="0.3" stroke-opacity="1" stroke-linejoin="round" stroke-linecap="round"/>
 <path id="Путь-26" d="M26.038 44.375 L27.283 45.075" fill="none" stroke="#ffffff" stroke-width="0.3" stroke-opacity="1" stroke-linejoin="round" stroke-linecap="round"/>
 <path id="Путь-27" d="M26.805 41.334 L28.671 42.19" fill="none" stroke="#ffffff" stroke-width="0.3" stroke-opacity="1" stroke-linejoin="round" stroke-linecap="round"/>
 <path id="Путь-28" d="M27.248 39.975 L28.804 41.921" fill="none" stroke="#ffffff" stroke-width="0.3" stroke-opacity="1" stroke-linejoin="round" stroke-linecap="round"/>
 <path id="Путь-29" d="M27.833 40.796 L29.699 39.706" fill="none" stroke="#ffffff" stroke-width="0.3" stroke-opacity="1" stroke-linejoin="round" stroke-linecap="round"/>
 <path id="Путь-30" d="M31.382 37.344 L32.004 38.356" fill="none" stroke="#ffffff" stroke-width="0.3" stroke-opacity="1" stroke-linejoin="round" stroke-linecap="round"/>
 <path id="Путь-31" d="M35.191 34.851 L35.891 35.941" fill="none" stroke="#ffffff" stroke-width="0.3" stroke-opacity="1" stroke-linejoin="round" stroke-linecap="round"/>
 <path id="Путь-32" d="M39.001 32.438 L39.701 33.528" fill="none" stroke="#ffffff" stroke-width="0.3" stroke-opacity="1" stroke-linejoin="round" stroke-linecap="round"/>
 <path id="Путь-33" d="M42.889 30.021 L43.589 31.033" fill="none" stroke="#ffffff" stroke-width="0.3" stroke-opacity="1" stroke-linejoin="round" stroke-linecap="round"/>
 <path id="Путь-34" d="M46.624 27.612 L47.324 28.702" fill="none" stroke="#ffffff" stroke-width="0.3" stroke-opacity="1" stroke-linejoin="round" stroke-linecap="round"/>
 <path id="Путь-35" d="M50.195 25.345 L50.973 26.356" fill="none" stroke="#ffffff" stroke-width="0.3" stroke-opacity="1" stroke-linejoin="round" stroke-linecap="round"/>
 <path id="Путь-36" d="M54.01 25.521 L53.31 26.533" fill="none" stroke="#ffffff" stroke-width="0.3" stroke-opacity="1" stroke-linejoin="round" stroke-linecap="round"/>
 <path id="Путь-37" d="M57.587 27.936 L56.809 29.026" fill="none" stroke="#ffffff" stroke-width="0.3" stroke-opacity="1" stroke-linejoin="round" stroke-linecap="round"/>
 <path id="Путь-38" d="M61.237 30.432 L60.381 31.522" fill="none" stroke="#ffffff" stroke-width="0.3" stroke-opacity="1" stroke-linejoin="round" stroke-linecap="round"/>
 <path id="Путь-39" d="M64.895 32.923 L64.04 34.013" fill="none" stroke="#ffffff" stroke-width="0.3" stroke-opacity="1" stroke-linejoin="round" stroke-linecap="round"/>
 <path id="Путь-40" d="M68.545 35.419 L67.612 36.509" fill="none" stroke="#ffffff" stroke-width="0.3" stroke-opacity="1" stroke-linejoin="round" stroke-linecap="round"/>
 <path id="Путь-41" d="M72.124 37.91 L71.19 38.999" fill="none" stroke="#ffffff" stroke-width="0.3" stroke-opacity="1" stroke-linejoin="round" stroke-linecap="round"/>
 <path id="Путь-42" d="M75.709 40.391 L74.076 42.648" fill="none" stroke="#ffffff" stroke-width="0.3" stroke-opacity="1" stroke-linejoin="round" stroke-linecap="round"/>
 <path id="Путь-43" d="M73.174 40.251 L74.885 41.263" fill="none" stroke="#ffffff" stroke-width="0.3" stroke-opacity="1" stroke-linejoin="round" stroke-linecap="round"/>
 <path id="Путь-44" d="M74.133 42.809 L75.922 42.109" fill="none" stroke="#ffffff" stroke-width="0.3" stroke-opacity="1" stroke-linejoin="round" stroke-linecap="round"/>
 <path id="Путь-45" d="M76.582 45.344 L75.337 45.889" fill="none" stroke="#ffffff" stroke-width="0.3" stroke-opacity="1" stroke-linejoin="round" stroke-linecap="round"/>
 <path id="Путь-46" d="M77.133 48.22 L76.356 48.61" fill="none" stroke="#ffffff" stroke-width="0.3" stroke-opacity="1" stroke-linejoin="round" stroke-linecap="round"/>
 <path id="Путь-47" d="M52.044 22.095 L26.738 38.102 20.246 51.942 23.691 38.411 52.044 20.326 78.851 38.677 81.28 52.252 75.937 38.677 Z" fill="none" stroke="#ffffff" stroke-width="0.3" stroke-opacity="1" stroke-linejoin="round" stroke-linecap="round"/>
 <path id="Путь-48" d="M21.497 46.939 L22.381 47.293" fill="none" stroke="#ffffff" stroke-width="0.3" stroke-opacity="1" stroke-linejoin="round" stroke-linecap="round"/>
 <path id="Путь-49" d="M22.484 43.322 L23.898 44.117" fill="none" stroke="#ffffff" stroke-width="0.3" stroke-opacity="1" stroke-linejoin="round" stroke-linecap="round"/>
 <path id="Путь-50" d="M23.357 39.867 L25.478 40.84" fill="none" stroke="#ffffff" stroke-width="0.3" stroke-opacity="1" stroke-linejoin="round" stroke-linecap="round"/>
 <path id="Путь-51" d="M23.855 38.318 L25.623 40.529" fill="none" stroke="#ffffff" stroke-width="0.3" stroke-opacity="1" stroke-linejoin="round" stroke-linecap="round"/>
 <path id="Путь-52" d="M24.544 39.255 L26.665 38.017" fill="none" stroke="#ffffff" stroke-width="0.3" stroke-opacity="1" stroke-linejoin="round" stroke-linecap="round"/>
 <path id="Путь-53" d="M28.548 35.326 L29.255 36.476" fill="none" stroke="#ffffff" stroke-width="0.3" stroke-opacity="1" stroke-linejoin="round" stroke-linecap="round"/>
 <path id="Путь-54" d="M32.878 32.493 L33.674 33.732" fill="none" stroke="#ffffff" stroke-width="0.3" stroke-opacity="1" stroke-linejoin="round" stroke-linecap="round"/>
 <path id="Путь-55" d="M37.208 29.752 L38.004 30.99" fill="none" stroke="#ffffff" stroke-width="0.3" stroke-opacity="1" stroke-linejoin="round" stroke-linecap="round"/>
 <path id="Путь-56" d="M41.623 27.006 L42.419 28.156" fill="none" stroke="#ffffff" stroke-width="0.3" stroke-opacity="1" stroke-linejoin="round" stroke-linecap="round"/>
 <path id="Путь-57" d="M45.866 24.269 L46.662 25.507" fill="none" stroke="#ffffff" stroke-width="0.3" stroke-opacity="1" stroke-linejoin="round" stroke-linecap="round"/>
 <path id="Путь-58" d="M49.925 21.694 L50.809 22.843" fill="none" stroke="#ffffff" stroke-width="0.3" stroke-opacity="1" stroke-linejoin="round" stroke-linecap="round"/>
 <path id="Путь-59" d="M54.26 21.871 L53.465 23.02" fill="none" stroke="#ffffff" stroke-width="0.3" stroke-opacity="1" stroke-linejoin="round" stroke-linecap="round"/>
 <path id="Путь-60" d="M58.325 24.614 L57.441 25.852" fill="none" stroke="#ffffff" stroke-width="0.3" stroke-opacity="1" stroke-linejoin="round" stroke-linecap="round"/>
 <path id="Путь-61" d="M62.475 27.449 L61.503 28.688" fill="none" stroke="#ffffff" stroke-width="0.3" stroke-opacity="1" stroke-linejoin="round" stroke-linecap="round"/>
 <path id="Путь-62" d="M66.626 30.28 L65.654 31.518" fill="none" stroke="#ffffff" stroke-width="0.3" stroke-opacity="1" stroke-linejoin="round" stroke-linecap="round"/>
 <path id="Путь-63" d="M70.778 33.114 L69.717 34.352" fill="none" stroke="#ffffff" stroke-width="0.3" stroke-opacity="1" stroke-linejoin="round" stroke-linecap="round"/>
 <path id="Путь-64" d="M74.842 35.944 L73.782 37.182" fill="none" stroke="#ffffff" stroke-width="0.3" stroke-opacity="1" stroke-linejoin="round" stroke-linecap="round"/>
 <path id="Путь-65" d="M78.914 38.765 L77.059 41.329" fill="none" stroke="#ffffff" stroke-width="0.3" stroke-opacity="1" stroke-linejoin="round" stroke-linecap="round"/>
 <path id="Путь-66" d="M75.988 38.611 L77.986 39.785" fill="none" stroke="#ffffff" stroke-width="0.3" stroke-opacity="1" stroke-linejoin="round" stroke-linecap="round"/>
 <path id="Путь-67" d="M77.137 41.551 L79.181 40.748" fill="none" stroke="#ffffff" stroke-width="0.3" stroke-opacity="1" stroke-linejoin="round" stroke-linecap="round"/>
 <path id="Путь-68" d="M79.914 44.386 L78.5 45.005" fill="none" stroke="#ffffff" stroke-width="0.3" stroke-opacity="1" stroke-linejoin="round" stroke-linecap="round"/>
 <path id="Путь-69" d="M80.54 47.655 L79.656 48.097" fill="none" stroke="#ffffff" stroke-width="0.3" stroke-opacity="1" stroke-linejoin="round" stroke-linecap="round"/>
 <path id="Путь-70" d="M52.058 16.86 L22.379 35.632 14.766 51.864 18.806 35.996 52.058 14.785 83.497 36.307 86.346 52.227 80.079 36.307 Z" fill="none" stroke="#ffffff" stroke-width="0.3" stroke-opacity="1" stroke-linejoin="round" stroke-linecap="round"/>
 <path id="Путь-71" d="M16.22 46.021 L17.256 46.435" fill="none" stroke="#ffffff" stroke-width="0.3" stroke-opacity="1" stroke-linejoin="round" stroke-linecap="round"/>
 <path id="Путь-72" d="M17.376 41.777 L19.034 42.71" fill="none" stroke="#ffffff" stroke-width="0.3" stroke-opacity="1" stroke-linejoin="round" stroke-linecap="round"/>
 <path id="Путь-73" d="M18.404 37.726 L20.892 38.867" fill="none" stroke="#ffffff" stroke-width="0.3" stroke-opacity="1" stroke-linejoin="round" stroke-linecap="round"/>
 <path id="Путь-74" d="M18.976 35.902 L21.049 38.495" fill="none" stroke="#ffffff" stroke-width="0.3" stroke-opacity="1" stroke-linejoin="round" stroke-linecap="round"/>
 <path id="Путь-75" d="M19.821 37.007 L22.308 35.555" fill="none" stroke="#ffffff" stroke-width="0.3" stroke-opacity="1" stroke-linejoin="round" stroke-linecap="round"/>
 <path id="Путь-76" d="M24.479 32.391 L25.308 33.739" fill="none" stroke="#ffffff" stroke-width="0.3" stroke-opacity="1" stroke-linejoin="round" stroke-linecap="round"/>
 <path id="Путь-77" d="M29.558 29.069 L30.491 30.521" fill="none" stroke="#ffffff" stroke-width="0.3" stroke-opacity="1" stroke-linejoin="round" stroke-linecap="round"/>
 <path id="Путь-78" d="M34.636 25.854 L35.569 27.306" fill="none" stroke="#ffffff" stroke-width="0.3" stroke-opacity="1" stroke-linejoin="round" stroke-linecap="round"/>
 <path id="Путь-79" d="M39.815 22.634 L40.747 23.983" fill="none" stroke="#ffffff" stroke-width="0.3" stroke-opacity="1" stroke-linejoin="round" stroke-linecap="round"/>
 <path id="Путь-80" d="M44.792 19.423 L45.725 20.875" fill="none" stroke="#ffffff" stroke-width="0.3" stroke-opacity="1" stroke-linejoin="round" stroke-linecap="round"/>
 <path id="Путь-81" d="M49.554 16.405 L50.591 17.754" fill="none" stroke="#ffffff" stroke-width="0.3" stroke-opacity="1" stroke-linejoin="round" stroke-linecap="round"/>
 <path id="Путь-82" d="M54.635 16.582 L53.702 17.93" fill="none" stroke="#ffffff" stroke-width="0.3" stroke-opacity="1" stroke-linejoin="round" stroke-linecap="round"/>
 <path id="Путь-83" d="M59.401 19.799 L58.365 21.251" fill="none" stroke="#ffffff" stroke-width="0.3" stroke-opacity="1" stroke-linejoin="round" stroke-linecap="round"/>
 <path id="Путь-84" d="M64.27 23.124 L63.13 24.576" fill="none" stroke="#ffffff" stroke-width="0.3" stroke-opacity="1" stroke-linejoin="round" stroke-linecap="round"/>
 <path id="Путь-85" d="M69.139 26.443 L67.999 27.895" fill="none" stroke="#ffffff" stroke-width="0.3" stroke-opacity="1" stroke-linejoin="round" stroke-linecap="round"/>
 <path id="Путь-86" d="M74.008 29.766 L72.765 31.219" fill="none" stroke="#ffffff" stroke-width="0.3" stroke-opacity="1" stroke-linejoin="round" stroke-linecap="round"/>
 <path id="Путь-87" d="M78.776 33.085 L77.532 34.538" fill="none" stroke="#ffffff" stroke-width="0.3" stroke-opacity="1" stroke-linejoin="round" stroke-linecap="round"/>
 <path id="Путь-88" d="M83.551 36.395 L81.375 39.403" fill="none" stroke="#ffffff" stroke-width="0.3" stroke-opacity="1" stroke-linejoin="round" stroke-linecap="round"/>
 <path id="Путь-89" d="M80.144 36.273 L82.467 37.629" fill="none" stroke="#ffffff" stroke-width="0.3" stroke-opacity="1" stroke-linejoin="round" stroke-linecap="round"/>
 <path id="Путь-90" d="M81.488 39.714 L83.891 38.76" fill="none" stroke="#ffffff" stroke-width="0.3" stroke-opacity="1" stroke-linejoin="round" stroke-linecap="round"/>
 <path id="Путь-91" d="M84.732 42.978 L83.049 43.721" fill="none" stroke="#ffffff" stroke-width="0.3" stroke-opacity="1" stroke-linejoin="round" stroke-linecap="round"/>
 <path id="Путь-92" d="M85.465 46.813 L84.429 47.331" fill="none" stroke="#ffffff" stroke-width="0.3" stroke-opacity="1" stroke-linejoin="round" stroke-linecap="round"/>
 <path id="Путь-93" d="M52.046 11.13 L17.53 32.962 8.676 51.839 13.374 33.384 52.046 8.717 88.609 33.746 91.922 52.262 84.634 33.746 Z" fill="none" stroke="#ffffff" stroke-width="0.3" stroke-opacity="1" stroke-linejoin="round" stroke-linecap="round"/>
 <path id="Путь-94" d="M10.358 45.066 L11.564 45.548" fill="none" stroke="#ffffff" stroke-width="0.3" stroke-opacity="1" stroke-linejoin="round" stroke-linecap="round"/>
 <path id="Путь-95" d="M11.702 40.129 L13.631 41.215" fill="none" stroke="#ffffff" stroke-width="0.3" stroke-opacity="1" stroke-linejoin="round" stroke-linecap="round"/>
 <path id="Путь-96" d="M12.896 35.419 L15.789 36.746" fill="none" stroke="#ffffff" stroke-width="0.3" stroke-opacity="1" stroke-linejoin="round" stroke-linecap="round"/>
 <path id="Путь-97" d="M13.555 33.291 L15.965 36.306" fill="none" stroke="#ffffff" stroke-width="0.3" stroke-opacity="1" stroke-linejoin="round" stroke-linecap="round"/>
 <path id="Путь-98" d="M14.565 34.582 L17.458 32.893" fill="none" stroke="#ffffff" stroke-width="0.3" stroke-opacity="1" stroke-linejoin="round" stroke-linecap="round"/>
 <path id="Путь-99" d="M19.952 29.205 L20.916 30.773" fill="none" stroke="#ffffff" stroke-width="0.3" stroke-opacity="1" stroke-linejoin="round" stroke-linecap="round"/>
 <path id="Путь-100" d="M25.859 25.342 L26.943 27.031" fill="none" stroke="#ffffff" stroke-width="0.3" stroke-opacity="1" stroke-linejoin="round" stroke-linecap="round"/>
 <path id="Путь-101" d="M31.763 21.603 L32.848 23.292" fill="none" stroke="#ffffff" stroke-width="0.3" stroke-opacity="1" stroke-linejoin="round" stroke-linecap="round"/>
 <path id="Путь-102" d="M37.787 17.859 L38.872 19.427" fill="none" stroke="#ffffff" stroke-width="0.3" stroke-opacity="1" stroke-linejoin="round" stroke-linecap="round"/>
 <path id="Путь-103" d="M43.575 14.124 L44.66 15.813" fill="none" stroke="#ffffff" stroke-width="0.3" stroke-opacity="1" stroke-linejoin="round" stroke-linecap="round"/>
 <path id="Путь-104" d="M49.113 10.616 L50.318 12.184" fill="none" stroke="#ffffff" stroke-width="0.3" stroke-opacity="1" stroke-linejoin="round" stroke-linecap="round"/>
 <path id="Путь-105" d="M55.024 10.793 L53.939 12.361" fill="none" stroke="#ffffff" stroke-width="0.3" stroke-opacity="1" stroke-linejoin="round" stroke-linecap="round"/>
 <path id="Путь-106" d="M60.567 14.534 L59.362 16.223" fill="none" stroke="#ffffff" stroke-width="0.3" stroke-opacity="1" stroke-linejoin="round" stroke-linecap="round"/>
 <path id="Путь-107" d="M66.227 18.4 L64.901 20.088" fill="none" stroke="#ffffff" stroke-width="0.3" stroke-opacity="1" stroke-linejoin="round" stroke-linecap="round"/>
 <path id="Путь-108" d="M71.893 22.259 L70.567 23.948" fill="none" stroke="#ffffff" stroke-width="0.3" stroke-opacity="1" stroke-linejoin="round" stroke-linecap="round"/>
 <path id="Путь-109" d="M77.553 26.124 L76.107 27.813" fill="none" stroke="#ffffff" stroke-width="0.3" stroke-opacity="1" stroke-linejoin="round" stroke-linecap="round"/>
 <path id="Путь-110" d="M83.1 29.984 L81.654 31.673" fill="none" stroke="#ffffff" stroke-width="0.3" stroke-opacity="1" stroke-linejoin="round" stroke-linecap="round"/>
 <path id="Путь-111" d="M88.651 33.834 L86.12 37.332" fill="none" stroke="#ffffff" stroke-width="0.3" stroke-opacity="1" stroke-linejoin="round" stroke-linecap="round"/>
 <path id="Путь-112" d="M84.695 33.713 L87.4 35.306" fill="none" stroke="#ffffff" stroke-width="0.3" stroke-opacity="1" stroke-linejoin="round" stroke-linecap="round"/>
 <path id="Путь-113" d="M86.259 37.738 L89.076 36.622" fill="none" stroke="#ffffff" stroke-width="0.3" stroke-opacity="1" stroke-linejoin="round" stroke-linecap="round"/>
 <path id="Путь-114" d="M90.036 41.483 L88.072 42.357" fill="none" stroke="#ffffff" stroke-width="0.3" stroke-opacity="1" stroke-linejoin="round" stroke-linecap="round"/>
 <path id="Путь-115" d="M90.887 45.942 L89.682 46.546" fill="none" stroke="#ffffff" stroke-width="0.3" stroke-opacity="1" stroke-linejoin="round" stroke-linecap="round"/>
 <path id="Путь-116" d="M52.056 3.84 L11.424 29.542 1 51.764 6.531 30.039 52.056 1 95.1 30.465 99 52.262 90.42 30.465 Z" fill="none" stroke="#ffffff" stroke-width="0.3" stroke-opacity="1" stroke-linejoin="round" stroke-linecap="round"/>
 <path id="Путь-117" d="M2.972 43.815 L4.391 44.383" fill="none" stroke="#ffffff" stroke-width="0.3" stroke-opacity="1" stroke-linejoin="round" stroke-linecap="round"/>
 <path id="Путь-118" d="M4.55 38.002 L6.82 39.28" fill="none" stroke="#ffffff" stroke-width="0.3" stroke-opacity="1" stroke-linejoin="round" stroke-linecap="round"/>
 <path id="Путь-119" d="M5.957 32.458 L9.363 34.02" fill="none" stroke="#ffffff" stroke-width="0.3" stroke-opacity="1" stroke-linejoin="round" stroke-linecap="round"/>
 <path id="Путь-120" d="M6.723 29.945 L9.56 33.495" fill="none" stroke="#ffffff" stroke-width="0.3" stroke-opacity="1" stroke-linejoin="round" stroke-linecap="round"/>
 <path id="Путь-121" d="M7.948 31.471 L11.353 29.483" fill="none" stroke="#ffffff" stroke-width="0.3" stroke-opacity="1" stroke-linejoin="round" stroke-linecap="round"/>
 <path id="Путь-122" d="M14.253 25.132 L15.388 26.978" fill="none" stroke="#ffffff" stroke-width="0.3" stroke-opacity="1" stroke-linejoin="round" stroke-linecap="round"/>
 <path id="Путь-123" d="M21.204 20.586 L22.481 22.574" fill="none" stroke="#ffffff" stroke-width="0.3" stroke-opacity="1" stroke-linejoin="round" stroke-linecap="round"/>
 <path id="Путь-124" d="M28.157 16.184 L29.434 18.172" fill="none" stroke="#ffffff" stroke-width="0.3" stroke-opacity="1" stroke-linejoin="round" stroke-linecap="round"/>
 <path id="Путь-125" d="M35.25 11.777 L36.527 13.623" fill="none" stroke="#ffffff" stroke-width="0.3" stroke-opacity="1" stroke-linejoin="round" stroke-linecap="round"/>
 <path id="Путь-126" d="M42.064 7.38 L43.341 9.368" fill="none" stroke="#ffffff" stroke-width="0.3" stroke-opacity="1" stroke-linejoin="round" stroke-linecap="round"/>
 <path id="Путь-127" d="M48.582 3.251 L50.001 5.097" fill="none" stroke="#ffffff" stroke-width="0.3" stroke-opacity="1" stroke-linejoin="round" stroke-linecap="round"/>
 <path id="Путь-128" d="M55.539 3.428 L54.262 5.274" fill="none" stroke="#ffffff" stroke-width="0.3" stroke-opacity="1" stroke-linejoin="round" stroke-linecap="round"/>
 <path id="Путь-129" d="M62.067 7.832 L60.648 9.82" fill="none" stroke="#ffffff" stroke-width="0.3" stroke-opacity="1" stroke-linejoin="round" stroke-linecap="round"/>
 <path id="Путь-130" d="M68.731 12.382 L67.17 14.37" fill="none" stroke="#ffffff" stroke-width="0.3" stroke-opacity="1" stroke-linejoin="round" stroke-linecap="round"/>
 <path id="Путь-131" d="M75.401 16.926 L73.84 18.913" fill="none" stroke="#ffffff" stroke-width="0.3" stroke-opacity="1" stroke-linejoin="round" stroke-linecap="round"/>
 <path id="Путь-132" d="M82.067 21.474 L80.364 23.462" fill="none" stroke="#ffffff" stroke-width="0.3" stroke-opacity="1" stroke-linejoin="round" stroke-linecap="round"/>
 <path id="Путь-133" d="M88.594 26.018 L86.892 28.006" fill="none" stroke="#ffffff" stroke-width="0.3" stroke-opacity="1" stroke-linejoin="round" stroke-linecap="round"/>
 <path id="Путь-134" d="M95.129 30.553 L92.149 34.671" fill="none" stroke="#ffffff" stroke-width="0.3" stroke-opacity="1" stroke-linejoin="round" stroke-linecap="round"/>
 <path id="Путь-135" d="M90.444 30.516 L93.623 32.393" fill="none" stroke="#ffffff" stroke-width="0.3" stroke-opacity="1" stroke-linejoin="round" stroke-linecap="round"/>
 <path id="Путь-136" d="M92.335 35.206 L95.66 33.875" fill="none" stroke="#ffffff" stroke-width="0.3" stroke-opacity="1" stroke-linejoin="round" stroke-linecap="round"/>
 <path id="Путь-137" d="M96.77 39.548 L94.454 40.576" fill="none" stroke="#ffffff" stroke-width="0.3" stroke-opacity="1" stroke-linejoin="round" stroke-linecap="round"/>
 <path id="Путь-138" d="M97.77 44.799 L96.351 45.509" fill="none" stroke="#ffffff" stroke-width="0.3" stroke-opacity="1" stroke-linejoin="round" stroke-linecap="round"/>
 <path id="Путь-139" d="M72.033 42.136 L75.661 40.283 78.836 38.667 83.462 36.291 88.632 33.725 95.117 30.447" fill="none" stroke="#ffffff" stroke-width="0.3" stroke-opacity="1" stroke-linejoin="round" stroke-linecap="round"/>
 <path id="Путь-140" d="M30.954 41.886 L27.121 40.036 23.686 38.376 18.808 35.957 13.432 33.349 6.563 30.029" fill="none" stroke="#ffffff" stroke-width="0.3" stroke-opacity="1" stroke-linejoin="round" stroke-linecap="round"/>
 <path id="Путь-141" d="M52.131 1 L52.131 29.806" fill="none" stroke="#ffffff" stroke-width="0.3" stroke-opacity="1" stroke-linejoin="round" stroke-linecap="round"/>
</svg>
