<?xml version="1.0" encoding="UTF-8"?>
<svg width="153px" height="97px" viewBox="0 0 153 97" xmlns="http://www.w3.org/2000/svg" version="1.1">
 <path id="Путь" d="M3.067 92.462 L3.067 84.607 8.963 84.607 8.963 92.462 7.984 92.462 7.984 85.477 4.057 85.477 4.057 92.462 Z M23.092 84.607 C24.119 84.607 24.867 84.809 25.336 85.213 25.805 85.616 26.04 86.184 26.04 86.918 26.04 87.24 25.985 87.552 25.875 87.853 25.772 88.146 25.6 88.41 25.358 88.645 25.116 88.879 24.793 89.066 24.39 89.206 23.987 89.338 23.492 89.404 22.905 89.404 L22.003 89.404 22.003 92.462 21.013 92.462 21.013 84.608 Z M23.004 85.454 L22.003 85.454 22.003 88.557 22.795 88.557 C23.294 88.557 23.708 88.505 24.038 88.403 24.368 88.293 24.614 88.12 24.775 87.886 24.936 87.651 25.017 87.343 25.017 86.962 25.017 86.456 24.856 86.078 24.533 85.828 24.21 85.579 23.701 85.454 23.004 85.454 Z M44.426 88.523 C44.426 89.132 44.349 89.686 44.195 90.185 44.041 90.676 43.81 91.101 43.502 91.461 43.201 91.82 42.824 92.095 42.369 92.285 41.922 92.476 41.401 92.572 40.807 92.572 40.191 92.572 39.656 92.476 39.201 92.285 38.746 92.088 38.369 91.813 38.068 91.461 37.767 91.101 37.544 90.672 37.397 90.174 37.25 89.675 37.177 89.121 37.177 88.513 37.177 87.706 37.309 87.002 37.573 86.401 37.837 85.799 38.237 85.33 38.772 84.993 39.315 84.655 39.997 84.487 40.818 84.487 41.603 84.487 42.263 84.655 42.798 84.993 43.333 85.323 43.737 85.792 44.008 86.401 44.287 87.002 44.426 87.71 44.426 88.523 Z M38.222 88.523 C38.222 89.184 38.314 89.752 38.497 90.229 38.68 90.705 38.963 91.072 39.344 91.328 39.733 91.585 40.22 91.714 40.807 91.714 41.401 91.714 41.885 91.585 42.259 91.328 42.64 91.072 42.923 90.705 43.106 90.229 43.289 89.752 43.381 89.184 43.381 88.523 43.381 87.534 43.176 86.76 42.765 86.202 42.354 85.638 41.705 85.355 40.818 85.355 40.224 85.355 39.733 85.484 39.344 85.741 38.963 85.99 38.68 86.353 38.497 86.829 38.314 87.299 38.222 87.864 38.222 88.523 Z M59.906 84.498 L59.906 85.465 C60.757 85.48 61.428 85.619 61.919 85.883 62.41 86.147 62.758 86.5 62.964 86.939 63.169 87.372 63.272 87.856 63.272 88.392 63.272 88.743 63.217 89.096 63.107 89.448 63.004 89.792 62.825 90.108 62.568 90.394 62.311 90.672 61.966 90.9 61.534 91.076 61.101 91.252 60.558 91.347 59.906 91.362 L59.906 92.572 58.927 92.572 58.927 91.362 C58.259 91.347 57.706 91.252 57.266 91.076 56.833 90.892 56.492 90.658 56.243 90.372 55.993 90.078 55.818 89.759 55.715 89.415 55.612 89.07 55.561 88.729 55.561 88.392 55.561 88.003 55.616 87.636 55.726 87.292 55.843 86.939 56.03 86.632 56.287 86.368 56.551 86.096 56.899 85.88 57.332 85.718 57.764 85.557 58.296 85.473 58.927 85.465 L58.927 84.498 Z M58.927 86.301 C58.34 86.316 57.871 86.411 57.519 86.588 57.174 86.764 56.929 87.006 56.782 87.313 56.635 87.614 56.562 87.97 56.562 88.381 56.562 88.813 56.643 89.191 56.804 89.514 56.972 89.829 57.229 90.075 57.574 90.251 57.926 90.426 58.377 90.526 58.927 90.548 Z M59.906 90.548 C60.471 90.526 60.925 90.423 61.27 90.24 61.622 90.056 61.875 89.807 62.029 89.492 62.19 89.169 62.271 88.799 62.271 88.381 62.271 87.963 62.197 87.603 62.051 87.303 61.904 86.994 61.659 86.756 61.314 86.588 60.969 86.411 60.5 86.316 59.906 86.301 Z M78.174 85.367 C77.756 85.367 77.378 85.44 77.041 85.587 76.703 85.726 76.417 85.935 76.183 86.214 75.948 86.485 75.768 86.819 75.644 87.215 75.519 87.603 75.457 88.043 75.457 88.535 75.457 89.18 75.556 89.741 75.754 90.217 75.959 90.694 76.26 91.061 76.656 91.318 77.059 91.574 77.561 91.702 78.163 91.702 78.507 91.702 78.834 91.673 79.142 91.615 79.45 91.556 79.75 91.482 80.044 91.395 L80.044 92.253 C79.75 92.363 79.446 92.443 79.131 92.494 78.823 92.546 78.452 92.572 78.02 92.572 77.22 92.572 76.553 92.407 76.018 92.076 75.482 91.746 75.079 91.277 74.808 90.669 74.544 90.06 74.412 89.345 74.412 88.523 74.412 87.93 74.492 87.387 74.654 86.896 74.822 86.404 75.064 85.979 75.38 85.619 75.702 85.26 76.098 84.985 76.568 84.795 77.037 84.597 77.576 84.498 78.185 84.498 78.588 84.498 78.977 84.538 79.351 84.618 79.725 84.699 80.058 84.813 80.352 84.96 L79.956 85.796 C79.714 85.686 79.442 85.587 79.142 85.499 78.848 85.41 78.526 85.367 78.174 85.367 Z M94.144 92.462 L93.154 92.462 93.154 85.477 90.701 85.477 90.701 84.607 96.586 84.607 96.586 85.477 94.144 85.477 Z M109.749 84.607 C110.776 84.607 111.524 84.809 111.993 85.213 112.462 85.616 112.697 86.184 112.697 86.918 112.697 87.24 112.642 87.552 112.532 87.853 112.429 88.146 112.257 88.41 112.015 88.645 111.773 88.879 111.45 89.066 111.047 89.205 110.644 89.338 110.149 89.404 109.562 89.404 L108.66 89.404 108.66 92.462 107.67 92.462 107.67 84.607 Z M109.661 85.454 L108.66 85.454 108.66 88.557 109.452 88.557 C109.951 88.557 110.365 88.505 110.695 88.403 111.025 88.293 111.271 88.12 111.432 87.885 111.593 87.651 111.674 87.343 111.674 86.962 111.674 86.455 111.513 86.078 111.19 85.828 110.867 85.579 110.358 85.454 109.661 85.454 Z M131.083 88.523 C131.083 89.132 131.006 89.686 130.852 90.185 130.698 90.676 130.467 91.101 130.159 91.461 129.859 91.82 129.481 92.095 129.026 92.285 128.579 92.476 128.058 92.572 127.464 92.572 126.848 92.572 126.313 92.476 125.858 92.285 125.404 92.088 125.026 91.813 124.725 91.461 124.425 91.101 124.201 90.672 124.054 90.174 123.908 89.675 123.834 89.121 123.834 88.513 123.834 87.706 123.966 87.002 124.23 86.401 124.494 85.799 124.894 85.33 125.429 84.993 125.972 84.655 126.654 84.487 127.475 84.487 128.26 84.487 128.92 84.655 129.455 84.993 129.991 85.323 130.394 85.792 130.665 86.401 130.944 87.002 131.083 87.71 131.083 88.523 Z M124.879 88.523 C124.879 89.184 124.971 89.752 125.154 90.229 125.338 90.705 125.62 91.072 126.001 91.328 126.39 91.585 126.878 91.714 127.464 91.714 128.058 91.714 128.542 91.585 128.916 91.328 129.298 91.072 129.58 90.705 129.763 90.229 129.947 89.752 130.038 89.184 130.038 88.523 130.038 87.534 129.833 86.76 129.422 86.202 129.012 85.638 128.363 85.355 127.475 85.355 126.881 85.355 126.39 85.484 126.001 85.741 125.62 85.99 125.338 86.353 125.154 86.829 124.971 87.299 124.879 87.864 124.879 88.523 Z M148.081 82.166 C148.052 82.532 147.96 82.84 147.806 83.09 147.659 83.339 147.439 83.526 147.146 83.651 146.853 83.775 146.471 83.838 146.002 83.838 145.525 83.838 145.14 83.775 144.847 83.651 144.561 83.526 144.352 83.342 144.22 83.101 144.088 82.851 144.007 82.54 143.978 82.166 L144.88 82.166 C144.917 82.562 145.019 82.829 145.188 82.968 145.364 83.101 145.643 83.167 146.024 83.167 146.361 83.167 146.625 83.097 146.816 82.958 147.014 82.811 147.131 82.547 147.168 82.166 Z M142.735 84.607 L143.659 84.607 143.659 88.92 C143.659 89.103 143.655 89.305 143.648 89.524 143.648 89.737 143.644 89.95 143.637 90.162 143.63 90.375 143.619 90.566 143.604 90.735 143.597 90.896 143.589 91.021 143.582 91.108 L143.626 91.108 147.949 84.607 149.049 84.607 149.049 92.462 148.125 92.462 148.125 88.194 C148.125 87.995 148.129 87.783 148.136 87.556 148.143 87.321 148.151 87.097 148.158 86.884 148.173 86.665 148.184 86.47 148.191 86.301 148.198 86.133 148.206 86.008 148.213 85.927 L148.169 85.927 143.835 92.462 142.735 92.462 Z" fill="#ffffff" fill-opacity="1" stroke="none"/>
 <g id="group">
  <path id="Путь-1" d="M79.123 45.018 L50.22 63.291 42.805 79.091 46.739 63.645 79.123 42.999 109.742 63.948 112.516 79.445 106.413 63.948 Z" fill="none" stroke="#ffffff" stroke-width="0.3" stroke-opacity="1" stroke-linejoin="round" stroke-linecap="round"/>
  <path id="Путь-2" d="M44.224 73.399 L45.233 73.803" fill="none" stroke="#ffffff" stroke-width="0.3" stroke-opacity="1" stroke-linejoin="round" stroke-linecap="round"/>
  <path id="Путь-3" d="M45.351 69.269 L46.965 70.177" fill="none" stroke="#ffffff" stroke-width="0.3" stroke-opacity="1" stroke-linejoin="round" stroke-linecap="round"/>
  <path id="Путь-4" d="M46.348 65.326 L48.769 66.436" fill="none" stroke="#ffffff" stroke-width="0.3" stroke-opacity="1" stroke-linejoin="round" stroke-linecap="round"/>
  <path id="Путь-5" d="M46.904 63.551 L48.922 66.075" fill="none" stroke="#ffffff" stroke-width="0.3" stroke-opacity="1" stroke-linejoin="round" stroke-linecap="round"/>
  <path id="Путь-6" d="M47.723 64.626 L50.145 63.212" fill="none" stroke="#ffffff" stroke-width="0.3" stroke-opacity="1" stroke-linejoin="round" stroke-linecap="round"/>
  <path id="Путь-7" d="M52.264 60.133 L53.072 61.446" fill="none" stroke="#ffffff" stroke-width="0.3" stroke-opacity="1" stroke-linejoin="round" stroke-linecap="round"/>
  <path id="Путь-8" d="M57.206 56.9 L58.114 58.314" fill="none" stroke="#ffffff" stroke-width="0.3" stroke-opacity="1" stroke-linejoin="round" stroke-linecap="round"/>
  <path id="Путь-9" d="M62.15 53.771 L63.058 55.184" fill="none" stroke="#ffffff" stroke-width="0.3" stroke-opacity="1" stroke-linejoin="round" stroke-linecap="round"/>
  <path id="Путь-10" d="M67.19 50.637 L68.098 51.949" fill="none" stroke="#ffffff" stroke-width="0.3" stroke-opacity="1" stroke-linejoin="round" stroke-linecap="round"/>
  <path id="Путь-11" d="M72.036 47.511 L72.944 48.925" fill="none" stroke="#ffffff" stroke-width="0.3" stroke-opacity="1" stroke-linejoin="round" stroke-linecap="round"/>
  <path id="Путь-12" d="M76.672 44.573 L77.68 45.886" fill="none" stroke="#ffffff" stroke-width="0.3" stroke-opacity="1" stroke-linejoin="round" stroke-linecap="round"/>
  <path id="Путь-13" d="M81.617 44.75 L80.709 46.063" fill="none" stroke="#ffffff" stroke-width="0.3" stroke-opacity="1" stroke-linejoin="round" stroke-linecap="round"/>
  <path id="Путь-14" d="M86.259 47.882 L85.25 49.295" fill="none" stroke="#ffffff" stroke-width="0.3" stroke-opacity="1" stroke-linejoin="round" stroke-linecap="round"/>
  <path id="Путь-15" d="M90.995 51.118 L89.885 52.531" fill="none" stroke="#ffffff" stroke-width="0.3" stroke-opacity="1" stroke-linejoin="round" stroke-linecap="round"/>
  <path id="Путь-16" d="M95.735 54.349 L94.625 55.762" fill="none" stroke="#ffffff" stroke-width="0.3" stroke-opacity="1" stroke-linejoin="round" stroke-linecap="round"/>
  <path id="Путь-17" d="M100.473 57.584 L99.262 58.997" fill="none" stroke="#ffffff" stroke-width="0.3" stroke-opacity="1" stroke-linejoin="round" stroke-linecap="round"/>
  <path id="Путь-18" d="M105.116 60.815 L103.905 62.228" fill="none" stroke="#ffffff" stroke-width="0.3" stroke-opacity="1" stroke-linejoin="round" stroke-linecap="round"/>
  <path id="Путь-19" d="M109.762 64.036 L107.644 66.963" fill="none" stroke="#ffffff" stroke-width="0.3" stroke-opacity="1" stroke-linejoin="round" stroke-linecap="round"/>
  <path id="Путь-20" d="M106.488 63.919 L108.708 65.232" fill="none" stroke="#ffffff" stroke-width="0.3" stroke-opacity="1" stroke-linejoin="round" stroke-linecap="round"/>
  <path id="Путь-21" d="M107.769 67.241 L110.09 66.332" fill="none" stroke="#ffffff" stroke-width="0.3" stroke-opacity="1" stroke-linejoin="round" stroke-linecap="round"/>
  <path id="Путь-22" d="M110.912 70.445 L109.298 71.152" fill="none" stroke="#ffffff" stroke-width="0.3" stroke-opacity="1" stroke-linejoin="round" stroke-linecap="round"/>
  <path id="Путь-23" d="M111.624 74.177 L110.615 74.682" fill="none" stroke="#ffffff" stroke-width="0.3" stroke-opacity="1" stroke-linejoin="round" stroke-linecap="round"/>
 </g>
 <path id="Путь-24" d="M79.127 38.819 L45.037 60.383 36.291 79.027 40.932 60.8 79.127 36.436 115.24 61.157 118.512 79.444 111.314 61.157 Z" fill="none" stroke="#ffffff" stroke-width="0.3" stroke-opacity="1" stroke-linejoin="round" stroke-linecap="round"/>
 <path id="Путь-25" d="M37.954 72.336 L39.145 72.812" fill="none" stroke="#ffffff" stroke-width="0.3" stroke-opacity="1" stroke-linejoin="round" stroke-linecap="round"/>
 <path id="Путь-26" d="M39.282 67.46 L41.187 68.532" fill="none" stroke="#ffffff" stroke-width="0.3" stroke-opacity="1" stroke-linejoin="round" stroke-linecap="round"/>
 <path id="Путь-27" d="M40.461 62.808 L43.318 64.118" fill="none" stroke="#ffffff" stroke-width="0.3" stroke-opacity="1" stroke-linejoin="round" stroke-linecap="round"/>
 <path id="Путь-28" d="M41.111 60.706 L43.492 63.684" fill="none" stroke="#ffffff" stroke-width="0.3" stroke-opacity="1" stroke-linejoin="round" stroke-linecap="round"/>
 <path id="Путь-29" d="M42.108 61.981 L44.965 60.313" fill="none" stroke="#ffffff" stroke-width="0.3" stroke-opacity="1" stroke-linejoin="round" stroke-linecap="round"/>
 <path id="Путь-30" d="M47.43 56.67 L48.383 58.219" fill="none" stroke="#ffffff" stroke-width="0.3" stroke-opacity="1" stroke-linejoin="round" stroke-linecap="round"/>
 <path id="Путь-31" d="M53.263 52.856 L54.334 54.524" fill="none" stroke="#ffffff" stroke-width="0.3" stroke-opacity="1" stroke-linejoin="round" stroke-linecap="round"/>
 <path id="Путь-32" d="M59.097 49.162 L60.168 50.83" fill="none" stroke="#ffffff" stroke-width="0.3" stroke-opacity="1" stroke-linejoin="round" stroke-linecap="round"/>
 <path id="Путь-33" d="M65.047 45.465 L66.119 47.014" fill="none" stroke="#ffffff" stroke-width="0.3" stroke-opacity="1" stroke-linejoin="round" stroke-linecap="round"/>
 <path id="Путь-34" d="M70.763 41.776 L71.834 43.444" fill="none" stroke="#ffffff" stroke-width="0.3" stroke-opacity="1" stroke-linejoin="round" stroke-linecap="round"/>
 <path id="Путь-35" d="M76.232 38.311 L77.423 39.859" fill="none" stroke="#ffffff" stroke-width="0.3" stroke-opacity="1" stroke-linejoin="round" stroke-linecap="round"/>
 <path id="Путь-36" d="M82.071 38.488 L80.999 40.036" fill="none" stroke="#ffffff" stroke-width="0.3" stroke-opacity="1" stroke-linejoin="round" stroke-linecap="round"/>
 <path id="Путь-37" d="M87.544 42.183 L86.353 43.85" fill="none" stroke="#ffffff" stroke-width="0.3" stroke-opacity="1" stroke-linejoin="round" stroke-linecap="round"/>
 <path id="Путь-38" d="M93.134 46 L91.824 47.668" fill="none" stroke="#ffffff" stroke-width="0.3" stroke-opacity="1" stroke-linejoin="round" stroke-linecap="round"/>
 <path id="Путь-39" d="M98.733 49.813 L97.424 51.481" fill="none" stroke="#ffffff" stroke-width="0.3" stroke-opacity="1" stroke-linejoin="round" stroke-linecap="round"/>
 <path id="Путь-40" d="M104.323 53.63 L102.894 55.298" fill="none" stroke="#ffffff" stroke-width="0.3" stroke-opacity="1" stroke-linejoin="round" stroke-linecap="round"/>
 <path id="Путь-41" d="M109.798 57.442 L108.369 59.11" fill="none" stroke="#ffffff" stroke-width="0.3" stroke-opacity="1" stroke-linejoin="round" stroke-linecap="round"/>
 <path id="Путь-42" d="M115.281 61.245 L112.781 64.7" fill="none" stroke="#ffffff" stroke-width="0.3" stroke-opacity="1" stroke-linejoin="round" stroke-linecap="round"/>
 <path id="Путь-43" d="M111.428 61.147 L114.047 62.696" fill="none" stroke="#ffffff" stroke-width="0.3" stroke-opacity="1" stroke-linejoin="round" stroke-linecap="round"/>
 <path id="Путь-44" d="M112.965 65.068 L115.704 63.996" fill="none" stroke="#ffffff" stroke-width="0.3" stroke-opacity="1" stroke-linejoin="round" stroke-linecap="round"/>
 <path id="Путь-45" d="M116.65 68.8 L114.745 69.634" fill="none" stroke="#ffffff" stroke-width="0.3" stroke-opacity="1" stroke-linejoin="round" stroke-linecap="round"/>
 <path id="Путь-46" d="M117.491 73.205 L116.301 73.801" fill="none" stroke="#ffffff" stroke-width="0.3" stroke-opacity="1" stroke-linejoin="round" stroke-linecap="round"/>
 <path id="Путь-47" d="M79.129 33.288 L40.396 57.788 30.459 78.973 35.732 58.262 79.129 30.581 120.161 58.668 123.879 79.446 115.699 58.668 Z" fill="none" stroke="#ffffff" stroke-width="0.3" stroke-opacity="1" stroke-linejoin="round" stroke-linecap="round"/>
 <path id="Путь-48" d="M32.341 71.388 L33.694 71.93" fill="none" stroke="#ffffff" stroke-width="0.3" stroke-opacity="1" stroke-linejoin="round" stroke-linecap="round"/>
 <path id="Путь-49" d="M33.847 65.847 L36.011 67.065" fill="none" stroke="#ffffff" stroke-width="0.3" stroke-opacity="1" stroke-linejoin="round" stroke-linecap="round"/>
 <path id="Путь-50" d="M35.187 60.562 L38.434 62.051" fill="none" stroke="#ffffff" stroke-width="0.3" stroke-opacity="1" stroke-linejoin="round" stroke-linecap="round"/>
 <path id="Путь-51" d="M35.92 58.168 L38.625 61.553" fill="none" stroke="#ffffff" stroke-width="0.3" stroke-opacity="1" stroke-linejoin="round" stroke-linecap="round"/>
 <path id="Путь-52" d="M37.079 59.622 L40.325 57.726" fill="none" stroke="#ffffff" stroke-width="0.3" stroke-opacity="1" stroke-linejoin="round" stroke-linecap="round"/>
 <path id="Путь-53" d="M43.098 53.581 L44.181 55.341" fill="none" stroke="#ffffff" stroke-width="0.3" stroke-opacity="1" stroke-linejoin="round" stroke-linecap="round"/>
 <path id="Путь-54" d="M49.726 49.247 L50.943 51.142" fill="none" stroke="#ffffff" stroke-width="0.3" stroke-opacity="1" stroke-linejoin="round" stroke-linecap="round"/>
 <path id="Путь-55" d="M56.355 45.051 L57.572 46.946" fill="none" stroke="#ffffff" stroke-width="0.3" stroke-opacity="1" stroke-linejoin="round" stroke-linecap="round"/>
 <path id="Путь-56" d="M63.113 40.85 L64.331 42.61" fill="none" stroke="#ffffff" stroke-width="0.3" stroke-opacity="1" stroke-linejoin="round" stroke-linecap="round"/>
 <path id="Путь-57" d="M69.609 36.658 L70.826 38.554" fill="none" stroke="#ffffff" stroke-width="0.3" stroke-opacity="1" stroke-linejoin="round" stroke-linecap="round"/>
 <path id="Путь-58" d="M75.824 32.723 L77.177 34.482" fill="none" stroke="#ffffff" stroke-width="0.3" stroke-opacity="1" stroke-linejoin="round" stroke-linecap="round"/>
 <path id="Путь-59" d="M82.457 32.899 L81.24 34.659" fill="none" stroke="#ffffff" stroke-width="0.3" stroke-opacity="1" stroke-linejoin="round" stroke-linecap="round"/>
 <path id="Путь-60" d="M88.679 37.098 L87.326 38.993" fill="none" stroke="#ffffff" stroke-width="0.3" stroke-opacity="1" stroke-linejoin="round" stroke-linecap="round"/>
 <path id="Путь-61" d="M95.032 41.435 L93.544 43.33" fill="none" stroke="#ffffff" stroke-width="0.3" stroke-opacity="1" stroke-linejoin="round" stroke-linecap="round"/>
 <path id="Путь-62" d="M101.386 45.766 L99.898 47.661" fill="none" stroke="#ffffff" stroke-width="0.3" stroke-opacity="1" stroke-linejoin="round" stroke-linecap="round"/>
 <path id="Путь-63" d="M107.743 50.103 L106.12 51.998" fill="none" stroke="#ffffff" stroke-width="0.3" stroke-opacity="1" stroke-linejoin="round" stroke-linecap="round"/>
 <path id="Путь-64" d="M113.964 54.434 L112.341 56.329" fill="none" stroke="#ffffff" stroke-width="0.3" stroke-opacity="1" stroke-linejoin="round" stroke-linecap="round"/>
 <path id="Путь-65" d="M120.191 58.756 L117.351 62.682" fill="none" stroke="#ffffff" stroke-width="0.3" stroke-opacity="1" stroke-linejoin="round" stroke-linecap="round"/>
 <path id="Путь-66" d="M115.736 58.637 L118.795 60.434" fill="none" stroke="#ffffff" stroke-width="0.3" stroke-opacity="1" stroke-linejoin="round" stroke-linecap="round"/>
 <path id="Путь-67" d="M117.562 63.142 L120.692 61.913" fill="none" stroke="#ffffff" stroke-width="0.3" stroke-opacity="1" stroke-linejoin="round" stroke-linecap="round"/>
 <path id="Путь-68" d="M121.755 67.333 L119.591 68.281" fill="none" stroke="#ffffff" stroke-width="0.3" stroke-opacity="1" stroke-linejoin="round" stroke-linecap="round"/>
 <path id="Путь-69" d="M122.71 72.339 L121.357 73.015" fill="none" stroke="#ffffff" stroke-width="0.3" stroke-opacity="1" stroke-linejoin="round" stroke-linecap="round"/>
 <path id="Путь-70" d="M79.152 25.275 L33.726 54.009 22.072 78.854 28.256 54.565 79.152 22.1 127.273 55.041 131.634 79.409 122.041 55.041 Z" fill="none" stroke="#ffffff" stroke-width="0.3" stroke-opacity="1" stroke-linejoin="round" stroke-linecap="round"/>
 <path id="Путь-71" d="M24.269 69.983 L25.855 70.618" fill="none" stroke="#ffffff" stroke-width="0.3" stroke-opacity="1" stroke-linejoin="round" stroke-linecap="round"/>
 <path id="Путь-72" d="M26.032 63.483 L28.571 64.911" fill="none" stroke="#ffffff" stroke-width="0.3" stroke-opacity="1" stroke-linejoin="round" stroke-linecap="round"/>
 <path id="Путь-73" d="M27.607 57.286 L31.415 59.032" fill="none" stroke="#ffffff" stroke-width="0.3" stroke-opacity="1" stroke-linejoin="round" stroke-linecap="round"/>
 <path id="Путь-74" d="M28.453 54.471 L31.626 58.44" fill="none" stroke="#ffffff" stroke-width="0.3" stroke-opacity="1" stroke-linejoin="round" stroke-linecap="round"/>
 <path id="Путь-75" d="M29.848 56.181 L33.656 53.959" fill="none" stroke="#ffffff" stroke-width="0.3" stroke-opacity="1" stroke-linejoin="round" stroke-linecap="round"/>
 <path id="Путь-76" d="M36.874 49.089 L38.143 51.152" fill="none" stroke="#ffffff" stroke-width="0.3" stroke-opacity="1" stroke-linejoin="round" stroke-linecap="round"/>
 <path id="Путь-77" d="M44.646 44.006 L46.073 46.229" fill="none" stroke="#ffffff" stroke-width="0.3" stroke-opacity="1" stroke-linejoin="round" stroke-linecap="round"/>
 <path id="Путь-78" d="M52.419 39.085 L53.847 41.307" fill="none" stroke="#ffffff" stroke-width="0.3" stroke-opacity="1" stroke-linejoin="round" stroke-linecap="round"/>
 <path id="Путь-79" d="M60.348 34.159 L61.776 36.223" fill="none" stroke="#ffffff" stroke-width="0.3" stroke-opacity="1" stroke-linejoin="round" stroke-linecap="round"/>
 <path id="Путь-80" d="M67.964 29.242 L69.392 31.465" fill="none" stroke="#ffffff" stroke-width="0.3" stroke-opacity="1" stroke-linejoin="round" stroke-linecap="round"/>
 <path id="Путь-81" d="M75.256 24.628 L76.842 26.692" fill="none" stroke="#ffffff" stroke-width="0.3" stroke-opacity="1" stroke-linejoin="round" stroke-linecap="round"/>
 <path id="Путь-82" d="M83.034 24.805 L81.606 26.869" fill="none" stroke="#ffffff" stroke-width="0.3" stroke-opacity="1" stroke-linejoin="round" stroke-linecap="round"/>
 <path id="Путь-83" d="M90.327 29.728 L88.741 31.951" fill="none" stroke="#ffffff" stroke-width="0.3" stroke-opacity="1" stroke-linejoin="round" stroke-linecap="round"/>
 <path id="Путь-84" d="M97.782 34.814 L96.037 37.036" fill="none" stroke="#ffffff" stroke-width="0.3" stroke-opacity="1" stroke-linejoin="round" stroke-linecap="round"/>
 <path id="Путь-85" d="M105.235 39.894 L103.49 42.116" fill="none" stroke="#ffffff" stroke-width="0.3" stroke-opacity="1" stroke-linejoin="round" stroke-linecap="round"/>
 <path id="Путь-86" d="M112.688 44.979 L110.784 47.201" fill="none" stroke="#ffffff" stroke-width="0.3" stroke-opacity="1" stroke-linejoin="round" stroke-linecap="round"/>
 <path id="Путь-87" d="M119.985 50.059 L118.081 52.281" fill="none" stroke="#ffffff" stroke-width="0.3" stroke-opacity="1" stroke-linejoin="round" stroke-linecap="round"/>
 <path id="Путь-88" d="M127.291 55.129 L123.96 59.733" fill="none" stroke="#ffffff" stroke-width="0.3" stroke-opacity="1" stroke-linejoin="round" stroke-linecap="round"/>
 <path id="Путь-89" d="M122.103 55.058 L125.658 57.134" fill="none" stroke="#ffffff" stroke-width="0.3" stroke-opacity="1" stroke-linejoin="round" stroke-linecap="round"/>
 <path id="Путь-90" d="M124.228 60.331 L127.906 58.87" fill="none" stroke="#ffffff" stroke-width="0.3" stroke-opacity="1" stroke-linejoin="round" stroke-linecap="round"/>
 <path id="Путь-91" d="M129.132 65.179 L126.557 66.316" fill="none" stroke="#ffffff" stroke-width="0.3" stroke-opacity="1" stroke-linejoin="round" stroke-linecap="round"/>
 <path id="Путь-92" d="M130.251 71.05 L128.665 71.844" fill="none" stroke="#ffffff" stroke-width="0.3" stroke-opacity="1" stroke-linejoin="round" stroke-linecap="round"/>
 <path id="Путь-93" d="M79.133 16.505 L26.303 49.922 12.75 78.815 19.941 50.568 79.133 12.812 135.097 51.122 140.168 79.461 129.012 51.122 Z" fill="none" stroke="#ffffff" stroke-width="0.3" stroke-opacity="1" stroke-linejoin="round" stroke-linecap="round"/>
 <path id="Путь-94" d="M15.296 68.522 L17.141 69.26" fill="none" stroke="#ffffff" stroke-width="0.3" stroke-opacity="1" stroke-linejoin="round" stroke-linecap="round"/>
 <path id="Путь-95" d="M17.343 60.961 L20.295 62.622" fill="none" stroke="#ffffff" stroke-width="0.3" stroke-opacity="1" stroke-linejoin="round" stroke-linecap="round"/>
 <path id="Путь-96" d="M19.18 53.755 L23.607 55.785" fill="none" stroke="#ffffff" stroke-width="0.3" stroke-opacity="1" stroke-linejoin="round" stroke-linecap="round"/>
 <path id="Путь-97" d="M20.154 50.474 L23.844 55.09" fill="none" stroke="#ffffff" stroke-width="0.3" stroke-opacity="1" stroke-linejoin="round" stroke-linecap="round"/>
 <path id="Путь-98" d="M21.803 52.469 L26.231 49.884" fill="none" stroke="#ffffff" stroke-width="0.3" stroke-opacity="1" stroke-linejoin="round" stroke-linecap="round"/>
 <path id="Путь-99" d="M29.944 44.212 L31.42 46.612" fill="none" stroke="#ffffff" stroke-width="0.3" stroke-opacity="1" stroke-linejoin="round" stroke-linecap="round"/>
 <path id="Путь-100" d="M38.982 38.302 L40.642 40.886" fill="none" stroke="#ffffff" stroke-width="0.3" stroke-opacity="1" stroke-linejoin="round" stroke-linecap="round"/>
 <path id="Путь-101" d="M48.021 32.578 L49.681 35.163" fill="none" stroke="#ffffff" stroke-width="0.3" stroke-opacity="1" stroke-linejoin="round" stroke-linecap="round"/>
 <path id="Путь-102" d="M57.242 26.85 L58.903 29.25" fill="none" stroke="#ffffff" stroke-width="0.3" stroke-opacity="1" stroke-linejoin="round" stroke-linecap="round"/>
 <path id="Путь-103" d="M66.101 21.131 L67.761 23.716" fill="none" stroke="#ffffff" stroke-width="0.3" stroke-opacity="1" stroke-linejoin="round" stroke-linecap="round"/>
 <path id="Путь-104" d="M74.582 15.767 L76.427 18.167" fill="none" stroke="#ffffff" stroke-width="0.3" stroke-opacity="1" stroke-linejoin="round" stroke-linecap="round"/>
 <path id="Путь-105" d="M83.625 15.944 L81.965 18.344" fill="none" stroke="#ffffff" stroke-width="0.3" stroke-opacity="1" stroke-linejoin="round" stroke-linecap="round"/>
 <path id="Путь-106" d="M92.11 21.669 L90.265 24.254" fill="none" stroke="#ffffff" stroke-width="0.3" stroke-opacity="1" stroke-linejoin="round" stroke-linecap="round"/>
 <path id="Путь-107" d="M100.776 27.583 L98.747 30.167" fill="none" stroke="#ffffff" stroke-width="0.3" stroke-opacity="1" stroke-linejoin="round" stroke-linecap="round"/>
 <path id="Путь-108" d="M109.45 33.49 L107.421 36.075" fill="none" stroke="#ffffff" stroke-width="0.3" stroke-opacity="1" stroke-linejoin="round" stroke-linecap="round"/>
 <path id="Путь-109" d="M118.118 39.403 L115.904 41.988" fill="none" stroke="#ffffff" stroke-width="0.3" stroke-opacity="1" stroke-linejoin="round" stroke-linecap="round"/>
 <path id="Путь-110" d="M126.604 45.311 L124.39 47.896" fill="none" stroke="#ffffff" stroke-width="0.3" stroke-opacity="1" stroke-linejoin="round" stroke-linecap="round"/>
 <path id="Путь-111" d="M135.098 51.21 L131.224 56.564" fill="none" stroke="#ffffff" stroke-width="0.3" stroke-opacity="1" stroke-linejoin="round" stroke-linecap="round"/>
 <path id="Путь-112" d="M129.066 51.139 L133.207 53.577" fill="none" stroke="#ffffff" stroke-width="0.3" stroke-opacity="1" stroke-linejoin="round" stroke-linecap="round"/>
 <path id="Путь-113" d="M131.529 57.306 L135.84 55.598" fill="none" stroke="#ffffff" stroke-width="0.3" stroke-opacity="1" stroke-linejoin="round" stroke-linecap="round"/>
 <path id="Путь-114" d="M137.249 62.89 L134.244 64.228" fill="none" stroke="#ffffff" stroke-width="0.3" stroke-opacity="1" stroke-linejoin="round" stroke-linecap="round"/>
 <path id="Путь-115" d="M138.547 69.718 L136.702 70.641" fill="none" stroke="#ffffff" stroke-width="0.3" stroke-opacity="1" stroke-linejoin="round" stroke-linecap="round"/>
 <path id="Путь-116" d="M79.148 5.347 L16.955 44.686 1 78.701 9.466 45.447 79.148 1 145.03 46.099 151 79.462 137.867 46.099 Z" fill="none" stroke="#ffffff" stroke-width="0.3" stroke-opacity="1" stroke-linejoin="round" stroke-linecap="round"/>
 <path id="Путь-117" d="M3.987 66.608 L6.159 67.477" fill="none" stroke="#ffffff" stroke-width="0.3" stroke-opacity="1" stroke-linejoin="round" stroke-linecap="round"/>
 <path id="Путь-118" d="M6.394 57.705 L9.869 59.661" fill="none" stroke="#ffffff" stroke-width="0.3" stroke-opacity="1" stroke-linejoin="round" stroke-linecap="round"/>
 <path id="Путь-119" d="M8.557 49.223 L13.769 51.614" fill="none" stroke="#ffffff" stroke-width="0.3" stroke-opacity="1" stroke-linejoin="round" stroke-linecap="round"/>
 <path id="Путь-120" d="M9.695 45.353 L14.039 50.787" fill="none" stroke="#ffffff" stroke-width="0.3" stroke-opacity="1" stroke-linejoin="round" stroke-linecap="round"/>
 <path id="Путь-121" d="M11.674 47.708 L16.887 44.665" fill="none" stroke="#ffffff" stroke-width="0.3" stroke-opacity="1" stroke-linejoin="round" stroke-linecap="round"/>
 <path id="Путь-122" d="M21.218 37.979 L22.955 40.804" fill="none" stroke="#ffffff" stroke-width="0.3" stroke-opacity="1" stroke-linejoin="round" stroke-linecap="round"/>
 <path id="Путь-123" d="M31.859 31.021 L33.813 34.064" fill="none" stroke="#ffffff" stroke-width="0.3" stroke-opacity="1" stroke-linejoin="round" stroke-linecap="round"/>
 <path id="Путь-124" d="M42.501 24.283 L44.456 27.326" fill="none" stroke="#ffffff" stroke-width="0.3" stroke-opacity="1" stroke-linejoin="round" stroke-linecap="round"/>
 <path id="Путь-125" d="M53.358 17.542 L55.312 20.367" fill="none" stroke="#ffffff" stroke-width="0.3" stroke-opacity="1" stroke-linejoin="round" stroke-linecap="round"/>
 <path id="Путь-126" d="M63.784 10.808 L65.739 13.851" fill="none" stroke="#ffffff" stroke-width="0.3" stroke-opacity="1" stroke-linejoin="round" stroke-linecap="round"/>
 <path id="Путь-127" d="M73.767 4.495 L75.939 7.32" fill="none" stroke="#ffffff" stroke-width="0.3" stroke-opacity="1" stroke-linejoin="round" stroke-linecap="round"/>
 <path id="Путь-128" d="M84.414 4.672 L82.46 7.497" fill="none" stroke="#ffffff" stroke-width="0.3" stroke-opacity="1" stroke-linejoin="round" stroke-linecap="round"/>
 <path id="Путь-129" d="M94.405 11.411 L92.233 14.454" fill="none" stroke="#ffffff" stroke-width="0.3" stroke-opacity="1" stroke-linejoin="round" stroke-linecap="round"/>
 <path id="Путь-130" d="M104.608 18.372 L102.219 21.414" fill="none" stroke="#ffffff" stroke-width="0.3" stroke-opacity="1" stroke-linejoin="round" stroke-linecap="round"/>
 <path id="Путь-131" d="M114.815 25.327 L112.426 28.37" fill="none" stroke="#ffffff" stroke-width="0.3" stroke-opacity="1" stroke-linejoin="round" stroke-linecap="round"/>
 <path id="Путь-132" d="M125.02 32.287 L122.414 35.329" fill="none" stroke="#ffffff" stroke-width="0.3" stroke-opacity="1" stroke-linejoin="round" stroke-linecap="round"/>
 <path id="Путь-133" d="M135.01 39.242 L132.404 42.285" fill="none" stroke="#ffffff" stroke-width="0.3" stroke-opacity="1" stroke-linejoin="round" stroke-linecap="round"/>
 <path id="Путь-134" d="M145.008 46.187 L140.448 52.49" fill="none" stroke="#ffffff" stroke-width="0.3" stroke-opacity="1" stroke-linejoin="round" stroke-linecap="round"/>
 <path id="Путь-135" d="M137.904 46.178 L142.77 49.05" fill="none" stroke="#ffffff" stroke-width="0.3" stroke-opacity="1" stroke-linejoin="round" stroke-linecap="round"/>
 <path id="Путь-136" d="M140.829 53.43 L145.918 51.394" fill="none" stroke="#ffffff" stroke-width="0.3" stroke-opacity="1" stroke-linejoin="round" stroke-linecap="round"/>
 <path id="Путь-137" d="M147.553 59.929 L144.009 61.502" fill="none" stroke="#ffffff" stroke-width="0.3" stroke-opacity="1" stroke-linejoin="round" stroke-linecap="round"/>
 <path id="Путь-138" d="M149.081 67.968 L146.909 69.054" fill="none" stroke="#ffffff" stroke-width="0.3" stroke-opacity="1" stroke-linejoin="round" stroke-linecap="round"/>
 <path id="Путь-139" d="M109.723 63.964 L115.276 61.127 120.135 58.654 127.216 55.017 135.129 51.09 145.056 46.071" fill="none" stroke="#ffffff" stroke-width="0.3" stroke-opacity="1" stroke-linejoin="round" stroke-linecap="round"/>
 <path id="Путь-140" d="M46.847 63.58 L40.981 60.749 35.723 58.208 28.257 54.506 20.028 50.514 9.514 45.432" fill="none" stroke="#ffffff" stroke-width="0.3" stroke-opacity="1" stroke-linejoin="round" stroke-linecap="round"/>
 <path id="Путь-141" d="M79.179 1 L79.179 45.091" fill="none" stroke="#ffffff" stroke-width="0.3" stroke-opacity="1" stroke-linejoin="round" stroke-linecap="round"/>
</svg>
