<svg width="120" height="120" viewBox="0 0 120 120" fill="none" xmlns="http://www.w3.org/2000/svg">
<path d="M59.999 109.758C59.6753 109.758 59.3516 109.669 59.0669 109.49C41.3767 98.4279 29.2316 82.6382 22.9693 62.5647C17.9879 46.5851 18.2167 32.6428 18.3144 26.6875C18.3255 26.0735 18.3339 25.5572 18.3339 25.1498C18.3339 24.2875 18.959 23.5535 19.8102 23.414C32.2539 21.3907 59.0642 10.4819 59.3349 10.3702C59.7618 10.1972 60.239 10.1972 60.6632 10.3702C60.9339 10.4791 87.7442 21.3907 100.188 23.414C101.039 23.5535 101.664 24.2875 101.664 25.1498C101.664 25.5572 101.673 26.0735 101.684 26.6875C101.781 32.6428 102.013 46.5851 97.0288 62.5619C90.7665 82.6382 78.6214 98.4251 60.9311 109.487C60.6465 109.669 60.3228 109.758 59.999 109.758ZM21.8335 26.6233C21.8335 26.6651 21.8335 26.7042 21.8307 26.7461C21.0967 71.227 41.9544 94.3061 59.999 105.918C78.0437 94.3061 98.9014 71.227 98.1674 26.7461C98.1674 26.7042 98.1674 26.6651 98.1646 26.6233C85.933 24.2316 64.1683 15.5805 59.999 13.8977C55.8297 15.5805 34.0651 24.2316 21.8335 26.6233Z" fill="white"/>
<path d="M52.4388 74.347C51.9727 74.347 51.5262 74.1628 51.1941 73.8307L38.5969 61.2335C37.9104 60.547 37.9104 59.4335 38.5969 58.747C39.2834 58.0605 40.3969 58.0605 41.0834 58.747L52.436 70.0996L81.0546 41.3861C81.7411 40.6968 82.8546 40.6968 83.5411 41.3805C84.2276 42.067 84.2304 43.1805 83.5439 43.867L53.6834 73.8279C53.3541 74.16 52.9048 74.347 52.4388 74.347Z" fill="white"/>
</svg>
