<svg width="120" height="120" viewBox="0 0 120 120" fill="none" xmlns="http://www.w3.org/2000/svg">
<path d="M82.1024 106.401C80.9164 106.401 79.7248 106.314 78.5611 106.144C77.9471 106.055 77.4336 105.633 77.2271 105.047L75.0978 99.0558L69.3573 101.782C68.7992 102.047 68.1378 101.983 67.6411 101.615C65.735 100.2 64.0494 98.5144 62.6317 96.6055C62.2634 96.1088 62.1964 95.4474 62.4643 94.8865L65.1936 89.146L59.1992 87.0167C58.6159 86.8102 58.1917 86.2967 58.1024 85.6827C57.9322 84.519 57.8457 83.3274 57.8457 82.1413C57.8457 80.9553 57.9322 79.7665 58.1024 78.6027C58.1917 77.9888 58.6131 77.4753 59.1992 77.2688L65.1936 75.1395L62.4615 69.3962C62.1964 68.8353 62.2606 68.1739 62.6317 67.6771C64.0494 65.7739 65.7322 64.0883 67.6383 62.6706C68.135 62.2995 68.7964 62.2353 69.3573 62.5004L75.1006 65.2325L77.2327 59.2381C77.442 58.6548 77.9555 58.2334 78.5666 58.1413C80.8913 57.8009 83.322 57.8009 85.6466 58.1413C86.2606 58.2306 86.7741 58.652 86.9806 59.2381L89.1099 65.2325L94.8531 62.5004C95.4113 62.2353 96.0755 62.2995 96.5722 62.6706C98.4783 64.0883 100.161 65.7739 101.579 67.6771C101.95 68.1739 102.014 68.8353 101.749 69.3962L99.0169 75.1423L105.011 77.2716C105.595 77.4781 106.019 77.9944 106.108 78.6083C106.278 79.772 106.365 80.9609 106.365 82.1469C106.365 83.333 106.278 84.5246 106.108 85.6883C106.019 86.3023 105.597 86.8158 105.011 87.0251L99.0169 89.1544L101.746 94.8948C102.011 95.4558 101.947 96.1144 101.579 96.6139C100.161 98.5227 98.4755 100.208 96.5694 101.623C96.0727 101.992 95.4113 102.056 94.8531 101.791L89.1127 99.0641L86.9834 105.056C86.7741 105.639 86.2606 106.06 85.6494 106.153C84.4773 106.314 83.2885 106.401 82.1024 106.401ZM80.0317 102.952C81.3992 103.086 82.7973 103.086 84.1676 102.952L86.5731 96.1897C86.7322 95.7432 87.0727 95.386 87.5108 95.2046C87.949 95.0232 88.4429 95.0371 88.8699 95.2381L95.3527 98.319C96.4215 97.4455 97.3983 96.466 98.2745 95.3971L95.1936 88.9144C94.9899 88.4874 94.9787 87.9934 95.1601 87.5553C95.3415 87.1171 95.6987 86.7767 96.1452 86.6176L102.913 84.212C102.98 83.5255 103.013 82.8334 103.013 82.1441C103.013 81.4548 102.98 80.7627 102.913 80.079L96.1452 77.6734C95.6987 77.5144 95.3415 77.1739 95.1601 76.7358C94.9787 76.2976 94.9927 75.8037 95.1936 75.3767L98.2773 68.8911C97.4011 67.8223 96.4243 66.8455 95.3555 65.9692L88.8699 69.053C88.4429 69.2567 87.949 69.2678 87.5108 69.0865C87.0727 68.9051 86.7322 68.5478 86.5731 68.1013L84.1676 61.3339C82.7973 61.1999 81.4048 61.1999 80.0345 61.3339L77.629 68.1013C77.4699 68.5478 77.1294 68.9051 76.6913 69.0865C76.2531 69.2678 75.7592 69.2539 75.3322 69.0502L68.8494 65.9665C67.7806 66.8427 66.8038 67.8223 65.9276 68.8883L69.0113 75.3739C69.215 75.8009 69.2262 76.2948 69.0448 76.733C68.8634 77.1711 68.5062 77.5116 68.0597 77.6706L61.2922 80.0762C61.2252 80.7599 61.1918 81.452 61.1918 82.1413C61.1918 82.8334 61.2252 83.5255 61.2922 84.2092L68.0597 86.6148C68.5062 86.7739 68.8634 87.1144 69.0448 87.5525C69.2262 87.9906 69.2122 88.4846 69.0113 88.9116L65.9304 95.3944C66.8066 96.4632 67.7862 97.4427 68.8522 98.3162L75.335 95.2353C75.762 95.0316 76.2559 95.0204 76.6941 95.2018C77.1322 95.3832 77.4727 95.7404 77.6317 96.1869L80.0317 102.952Z" fill="white"/>
<path d="M82.0999 91.3115C77.0432 91.3115 72.9297 87.198 72.9297 82.1413C72.9297 77.0846 77.0432 72.9711 82.0999 72.9711C87.1567 72.9711 91.2702 77.0846 91.2702 82.1413C91.2702 87.198 87.1567 91.3115 82.0999 91.3115ZM82.0999 76.3227C78.8906 76.3227 76.2785 78.9348 76.2785 82.1441C76.2785 85.3534 78.8906 87.9655 82.0999 87.9655C85.3092 87.9655 87.9213 85.3534 87.9213 82.1441C87.9213 78.9348 85.3092 76.3227 82.0999 76.3227Z" fill="white"/>
<path d="M44.9199 76.6967C43.0194 76.6967 41.1301 76.5292 39.305 76.1971C38.6827 76.0855 38.1776 75.6306 37.999 75.0223L36.6734 70.5264L32.959 73.3841C32.4566 73.7692 31.7813 73.839 31.2092 73.5655C27.8017 71.919 24.7459 69.6976 22.131 66.9599C21.6957 66.5023 21.5534 65.8381 21.7655 65.2437L23.3338 60.8344L18.651 60.9655C18.0231 60.9739 17.4287 60.6418 17.1301 60.0837C15.3301 56.732 14.1636 53.1348 13.6641 49.3897C13.5803 48.7646 13.8566 48.1451 14.3757 47.7878L18.2352 45.1423L14.3757 42.4995C13.8538 42.1423 13.5776 41.5227 13.6613 40.8976C14.1608 37.1469 15.3273 33.5497 17.1245 30.2065C17.4259 29.6483 18.0064 29.3134 18.6455 29.3246L23.331 29.4558L21.7599 25.0437C21.5478 24.4465 21.6901 23.7823 22.1283 23.3246C24.7459 20.5953 27.799 18.3739 31.2092 16.7218C31.7785 16.4455 32.4594 16.5153 32.9617 16.9004L36.6734 19.7581L37.9962 15.2679C38.1748 14.6595 38.6827 14.2046 39.305 14.093C42.9831 13.4316 46.8566 13.4316 50.5376 14.093C51.1599 14.2046 51.6678 14.6595 51.8464 15.2679L53.1692 19.7581L56.878 16.9004C57.3804 16.5125 58.0585 16.4427 58.6306 16.719C62.0352 18.3655 65.0911 20.5869 67.7115 23.3218C68.1497 23.7795 68.292 24.4465 68.0799 25.0437L66.5115 29.4558L71.1971 29.3246C71.8362 29.3134 72.4194 29.6483 72.718 30.2065C74.5125 33.5441 75.679 37.1385 76.1813 40.8976C76.265 41.5255 75.9887 42.1451 75.4669 42.5023L71.6073 45.1451L75.4669 47.7906C75.9887 48.1478 76.265 48.7674 76.1785 49.3953C75.6762 53.1404 74.5097 56.7376 72.7097 60.0864C72.4111 60.6446 71.8166 60.9767 71.1887 60.9683L66.5087 60.8371L68.0771 65.2464C68.2892 65.8437 68.1469 66.5078 67.7087 66.9655C65.0883 69.706 62.0324 71.9274 58.6278 73.5711C58.0585 73.8474 57.3804 73.7748 56.878 73.3897L53.1664 70.532L51.8408 75.0278C51.6622 75.6334 51.1571 76.0883 50.5348 76.2027C48.7097 76.5292 46.8204 76.6967 44.9199 76.6967ZM40.9124 73.066C43.5385 73.4399 46.3041 73.4399 48.9301 73.066L50.6492 67.2362C50.8055 66.706 51.2129 66.2874 51.7376 66.1171C52.2622 65.9469 52.8371 66.0474 53.2752 66.3823L58.0892 70.0883C60.4669 68.8353 62.638 67.253 64.5692 65.372L62.5348 59.6511C62.3506 59.1292 62.4343 58.5516 62.758 58.1051C63.0817 57.6585 63.6008 57.4074 64.159 57.4158L70.2315 57.586C71.4231 55.1637 72.2548 52.6046 72.7097 49.9562L67.7004 46.5237C67.2455 46.2111 66.972 45.6948 66.972 45.1423C66.972 44.5897 67.2455 44.0734 67.7004 43.7609L72.7097 40.3311C72.2548 37.6772 71.4259 35.1181 70.2371 32.7041L64.159 32.8744C63.598 32.8799 63.0817 32.6316 62.758 32.1851C62.4343 31.7385 62.3506 31.1609 62.5348 30.639L64.5692 24.9181C62.6352 23.0427 60.4613 21.4604 58.0808 20.2018L53.2752 23.9051C52.8371 24.2427 52.2622 24.3404 51.7376 24.1702C51.2129 23.9999 50.8055 23.5813 50.6492 23.0511L48.9329 17.2297C46.2873 16.853 43.5524 16.8558 40.9069 17.2297L39.1934 23.0511C39.0371 23.5813 38.6296 23.9999 38.105 24.1702C37.5803 24.3404 37.0027 24.2427 36.5673 23.9051L31.7562 20.2018C29.3757 21.4604 27.2017 23.0427 25.2706 24.9181L27.305 30.639C27.4892 31.1609 27.4055 31.7385 27.0817 32.1851C26.758 32.6316 26.2278 32.8799 25.6808 32.8744L19.6027 32.7041C18.411 35.1237 17.5822 37.6827 17.1301 40.3311L22.1366 43.7609C22.5915 44.0734 22.865 44.5897 22.865 45.1423C22.865 45.6948 22.5915 46.2111 22.1366 46.5237L17.1273 49.9562C17.5794 52.6046 18.4082 55.1637 19.6027 57.586L25.678 57.4158C26.2362 57.4074 26.7552 57.6585 27.0789 58.1051C27.4027 58.5516 27.4864 59.1292 27.3022 59.6511L25.2678 65.372C27.1962 67.2502 29.3673 68.8297 31.7478 70.0855L36.5645 66.3795C37.0027 66.0418 37.5776 65.9441 38.1022 66.1144C38.6269 66.2846 39.0343 66.7032 39.1906 67.2334L40.9124 73.066Z" fill="white"/>
<path d="M44.9198 56.7348C38.5291 56.7348 33.3301 51.5358 33.3301 45.1479C33.3301 38.7572 38.5291 33.5581 44.9198 33.5581C51.3077 33.5581 56.5068 38.7572 56.5068 45.1479C56.5068 51.5358 51.3077 56.7348 44.9198 56.7348ZM44.9198 36.9069C40.3766 36.9069 36.6789 40.6046 36.6789 45.1479C36.6789 49.6911 40.3766 53.386 44.9198 53.386C49.4631 53.386 53.158 49.6911 53.158 45.1479C53.158 40.6046 49.4631 36.9069 44.9198 36.9069Z" fill="white"/>
</svg>
