<svg width="120" height="120" viewBox="0 0 120 120" fill="none" xmlns="http://www.w3.org/2000/svg">
<path d="M97.5884 61.6745H104.652C105.575 61.6745 106.326 60.9238 106.326 60.0001C106.326 59.0763 105.575 58.3256 104.652 58.3256H97.5857L105.899 50.0122C106.552 49.3591 106.552 48.2987 105.899 47.6429C105.246 46.9898 104.186 46.9898 103.533 47.6429L92.8526 58.3256H79.8312L88.1447 50.0122C88.7977 49.3591 88.7977 48.2987 88.1447 47.6429C87.9466 47.4447 87.7066 47.3135 87.4554 47.2354C87.4359 47.2298 87.4191 47.2242 87.3996 47.2187C87.3354 47.2019 87.2712 47.1852 87.207 47.1768C87.1345 47.1656 87.0619 47.1573 86.9866 47.1545C86.9754 47.1545 86.9643 47.1517 86.9531 47.1517C86.9475 47.1517 86.9447 47.1517 86.9391 47.1517H75.1819L84.2991 38.0345H99.4052C100.329 38.0345 101.08 37.2838 101.08 36.3601C101.08 35.4363 100.329 34.6856 99.4052 34.6856H87.648L92.7494 29.5842C93.4024 28.9312 93.4024 27.8708 92.7494 27.2149C92.0964 26.5619 91.0359 26.5619 90.3829 27.2149L85.2815 32.3163V20.5647C85.2815 19.641 84.5308 18.8903 83.6071 18.8903C82.6833 18.8903 81.9326 19.641 81.9326 20.5647V35.6708L72.8154 44.788V33.0308C72.8154 33.0196 72.8126 33.0084 72.8126 32.9973C72.8126 32.9722 72.8098 32.947 72.8098 32.9219C72.8071 32.8856 72.8043 32.8466 72.7987 32.8103C72.7624 32.4391 72.6089 32.0791 72.3243 31.7945C71.6712 31.1415 70.6108 31.1415 69.9577 31.7945L61.6443 40.108V27.1815L72.3243 16.5015C72.9773 15.8484 72.9773 14.788 72.3243 14.1322C71.6712 13.4791 70.6108 13.4791 69.9577 14.1322L61.6443 22.4456V15.3154C61.6443 14.3917 60.8936 13.641 59.9698 13.641C59.0461 13.641 58.2954 14.3917 58.2954 15.3154V22.4456L49.9819 14.1322C49.3289 13.4791 48.2684 13.4791 47.6154 14.1322C46.9624 14.7852 46.9624 15.8456 47.6154 16.5015L58.2954 27.1815V40.108L49.9819 31.7945C49.3289 31.1415 48.2684 31.1415 47.6154 31.7945C47.3308 32.0791 47.1773 32.4391 47.141 32.8103C47.1354 32.8466 47.1326 32.8829 47.1298 32.9219C47.1298 32.947 47.127 32.9722 47.127 32.9973C47.127 33.0084 47.1243 33.0196 47.1243 33.0308V44.788L38.0071 35.6708V20.5647C38.0071 19.641 37.2564 18.8903 36.3326 18.8903C35.4089 18.8903 34.6582 19.641 34.6582 20.5647V32.3219L29.5568 27.2205C28.9038 26.5675 27.8433 26.5675 27.1903 27.2205C26.5373 27.8736 26.5373 28.934 27.1903 29.5898L32.2917 34.6912H20.5317C19.608 34.6912 18.8573 35.4419 18.8573 36.3656C18.8573 37.2894 19.608 38.0401 20.5317 38.0401H35.6377L44.755 47.1573H33.0591H32.9977C32.074 47.1573 31.3233 47.908 31.3233 48.8317C31.3233 49.4289 31.6359 49.9508 32.1075 50.2466L40.1894 58.3256H27.1484L16.4684 47.6456C15.8154 46.9926 14.755 46.9926 14.1019 47.6456C13.4489 48.2987 13.4489 49.3591 14.1019 50.0149L22.4126 58.3256H15.2852C14.3615 58.3256 13.6108 59.0763 13.6108 60.0001C13.6108 60.9238 14.3615 61.6745 15.2852 61.6745H22.4126L14.0991 69.988C13.4461 70.641 13.4461 71.7015 14.0991 72.3573C14.4257 72.6838 14.8554 72.8484 15.2824 72.8484C15.7094 72.8484 16.1391 72.6838 16.4657 72.3573L27.1484 61.6745H40.1894L32.1075 69.7563C31.6387 70.0522 31.3233 70.574 31.3233 71.1712C31.3233 72.0949 32.074 72.8456 32.9977 72.8456H44.755L35.6377 81.9629H20.5317C19.608 81.9629 18.8573 82.7136 18.8573 83.6373C18.8573 84.561 19.608 85.3117 20.5317 85.3117H32.2861L27.1875 90.4103C26.5345 91.0633 26.5345 92.1238 27.1875 92.7796C27.514 93.1061 27.9438 93.2708 28.3708 93.2708C28.8005 93.2708 29.2275 93.1061 29.554 92.7796L34.6554 87.6782V99.4354C34.6554 100.359 35.4061 101.11 36.3298 101.11C37.2536 101.11 38.0043 100.359 38.0043 99.4354V84.3294L47.1215 75.2122V86.9694C47.1215 87.0754 47.1326 87.1787 47.1522 87.2763C47.1522 87.2819 47.1522 87.2875 47.155 87.2931C47.1745 87.3935 47.2052 87.4912 47.2415 87.5833C47.2443 87.5917 47.2471 87.5973 47.2498 87.6057C47.2889 87.7005 47.3364 87.7926 47.3922 87.8763C47.395 87.8819 47.3978 87.8875 47.4033 87.8931C47.5261 88.0773 47.6852 88.2363 47.8722 88.3619C47.8777 88.3675 47.8861 88.3703 47.8917 88.3731C47.9782 88.4289 48.0675 88.4763 48.1624 88.5154C48.1708 88.5182 48.1791 88.521 48.1847 88.5238C48.2768 88.5601 48.3745 88.5908 48.475 88.6103C48.4805 88.6103 48.4861 88.6131 48.4917 88.6131C48.5922 88.6326 48.6954 88.6438 48.7987 88.6438C48.9047 88.6438 49.008 88.6326 49.1057 88.6131C49.1112 88.6131 49.1168 88.6103 49.1224 88.6103C49.2229 88.5908 49.3205 88.5601 49.4126 88.5238C49.421 88.521 49.4266 88.5182 49.435 88.5154C49.5298 88.4763 49.6219 88.4289 49.7057 88.3731C49.7112 88.3703 49.7168 88.3647 49.7252 88.3619C49.8173 88.3005 49.9038 88.2308 49.9847 88.1498L58.2982 79.8391V92.8187L47.6182 103.499C46.9652 104.152 46.9652 105.212 47.6182 105.868C47.9447 106.194 48.3745 106.359 48.8015 106.359C49.2312 106.359 49.6582 106.194 49.9847 105.868L58.2982 97.5545V104.685C58.2982 105.608 59.0489 106.359 59.9726 106.359C60.8964 106.359 61.647 105.608 61.647 104.685V97.5573L69.9605 105.871C70.2871 106.197 70.7168 106.362 71.1438 106.362C71.5736 106.362 72.0005 106.197 72.3271 105.871C72.9801 105.218 72.9801 104.157 72.3271 103.501L61.647 92.8215V79.8419L69.9577 88.1526C70.0359 88.2308 70.1224 88.3005 70.2145 88.3647C70.2201 88.3703 70.2284 88.3731 70.234 88.3759C70.3205 88.4317 70.4098 88.4791 70.5047 88.5182C70.5131 88.521 70.5215 88.5238 70.5271 88.5266C70.6191 88.5629 70.7168 88.5936 70.8173 88.6131C70.8229 88.6131 70.8284 88.6159 70.834 88.6159C70.9345 88.6354 71.0378 88.6466 71.141 88.6466C71.2471 88.6466 71.3503 88.6354 71.448 88.6159C71.4536 88.6159 71.4591 88.6131 71.4647 88.6131C71.5652 88.5936 71.6629 88.5629 71.755 88.5266C71.7633 88.5238 71.7689 88.521 71.7773 88.5182C71.8722 88.4791 71.9643 88.4317 72.048 88.3759C72.0536 88.3731 72.0591 88.3675 72.0675 88.3647C72.2517 88.2419 72.4108 88.0829 72.5364 87.8959C72.5392 87.8903 72.5419 87.8847 72.5475 87.8791C72.6033 87.7926 72.6508 87.7033 72.6898 87.6084C72.6926 87.6001 72.6954 87.5945 72.6982 87.5861C72.7345 87.494 72.7652 87.3963 72.7847 87.2959C72.7847 87.2903 72.7875 87.2847 72.7875 87.2791C72.8071 87.1787 72.8182 87.0754 72.8182 86.9722V75.2149L81.9354 84.3322V99.4382C81.9354 100.362 82.6861 101.113 83.6098 101.113C84.5336 101.113 85.2843 100.362 85.2843 99.4382V87.681L90.3857 92.7824C90.7122 93.1089 91.1419 93.2736 91.5689 93.2736C91.9959 93.2736 92.4257 93.1089 92.7522 92.7824C93.4052 92.1294 93.4052 91.0689 92.7522 90.4131L87.6536 85.3145H99.408C100.332 85.3145 101.082 84.5638 101.082 83.6401C101.082 82.7163 100.332 81.9656 99.408 81.9656H84.3047L75.1847 72.8484H86.9419C86.9475 72.8484 86.9531 72.8484 86.9559 72.8484C86.9587 72.8484 86.9615 72.8484 86.9643 72.8484C86.9726 72.8484 86.981 72.8456 86.9894 72.8456C87.0647 72.8429 87.1401 72.8373 87.2126 72.8233C87.2768 72.8149 87.341 72.7982 87.4024 72.7815C87.4219 72.7759 87.4415 72.7703 87.461 72.7647C87.7122 72.6866 87.9494 72.5554 88.1475 72.3573C88.8005 71.7042 88.8005 70.6438 88.1475 69.988L79.8312 61.6745H92.8526L103.533 72.3545C103.859 72.681 104.289 72.8456 104.716 72.8456C105.146 72.8456 105.573 72.681 105.899 72.3545C106.552 71.7015 106.552 70.641 105.899 69.9852L97.5884 61.6745ZM82.9177 50.5033L75.0954 58.3256H64.0108L71.8331 50.5033H82.9177ZM69.4666 82.9284L61.6443 75.1061V64.0438L69.4666 71.8661V82.9284ZM48.1038 69.4968H37.1029L44.9252 61.6745H55.9261L48.1038 69.4968ZM69.4666 48.1368L61.6443 55.9591V44.8438L69.4666 37.0215V48.1368ZM50.4731 37.0215L58.2954 44.8438V55.9591L50.4731 48.1368V37.0215ZM37.1029 50.5033H48.1038L55.9261 58.3256H44.9252L37.1029 50.5033ZM58.2954 64.041V75.1033L50.4731 82.9256V71.8633L58.2954 64.041ZM64.0108 61.6745H75.0954L82.9177 69.4968H71.8331L64.0108 61.6745Z" fill="white"/>
</svg>
