<svg width="120" height="120" viewBox="0 0 120 120" fill="none" xmlns="http://www.w3.org/2000/svg">
<path d="M67.4488 83.1489H65.1102L36.8488 54.8903V52.5517C36.8488 51.628 36.0981 50.8773 35.1744 50.8773C34.2507 50.8773 33.5 51.628 33.5 52.5517V55.5824V69.3517V84.8234C33.5 85.7471 34.2507 86.4978 35.1744 86.4978H50.6377C50.6405 86.4978 50.6433 86.4978 50.646 86.4978C50.6488 86.4978 50.6516 86.4978 50.6544 86.4978H64.407C64.4098 86.4978 64.4126 86.4978 64.4153 86.4978C64.4181 86.4978 64.4209 86.4978 64.4237 86.4978H67.446C68.3698 86.4978 69.1205 85.7471 69.1205 84.8234C69.1205 83.8996 68.3726 83.1489 67.4488 83.1489ZM60.3744 83.1489H51.3409L36.8488 68.6569V59.6234L60.3744 83.1489ZM36.8488 73.3955L46.6051 83.1489H36.8488V73.3955Z" fill="white"/>
<path d="M47.0993 51.3684C46.4463 50.7154 45.3858 50.7154 44.73 51.3684C44.077 52.0215 44.077 53.0819 44.73 53.7349L66.263 75.268C66.5895 75.5945 67.0193 75.7591 67.4463 75.7591C67.8733 75.7591 68.303 75.5945 68.6295 75.268C69.2826 74.6149 69.2826 73.5545 68.6295 72.9015L47.0993 51.3684Z" fill="white"/>
<path d="M53.738 44.2383C53.085 43.5853 52.0245 43.5853 51.3687 44.2383C50.7157 44.8913 50.7157 45.9518 51.3687 46.6048L73.3929 68.629C73.7194 68.9555 74.1491 69.1201 74.5761 69.1201C75.0031 69.1201 75.4329 68.9555 75.7594 68.629C76.4124 67.976 76.4124 66.9155 75.7594 66.2625L53.738 44.2383Z" fill="white"/>
<path d="M86.5002 63.9266V50.1573V35.1769C86.5002 34.2531 85.7495 33.5024 84.8258 33.5024H52.5514C51.6277 33.5024 50.877 34.2531 50.877 35.1769C50.877 36.1006 51.6277 36.8513 52.5514 36.8513H55.3783L83.1486 64.6215V67.4485C83.1486 68.3722 83.8993 69.1229 84.823 69.1229C85.7467 69.1229 86.4974 68.3722 86.4974 67.4485V63.9266C86.5002 63.9266 86.5002 63.9266 86.5002 63.9266ZM83.1514 46.1136L73.8863 36.8485H83.1514V46.1136ZM60.117 36.8485H69.1504L83.1514 50.8494V59.8829L60.117 36.8485Z" fill="white"/>
<path d="M52.5513 13.641H15.315C14.3913 13.641 13.6406 14.3917 13.6406 15.3154V52.5517C13.6406 53.4754 14.3913 54.2261 15.315 54.2261H52.5513C53.475 54.2261 54.2257 53.4754 54.2257 52.5517V15.3154C54.2257 14.3917 53.4778 13.641 52.5513 13.641ZM50.8769 50.8773H16.9895V16.9898H50.8769V50.8773Z" fill="white"/>
<path d="M104.684 65.774H67.4479C66.5241 65.774 65.7734 66.5247 65.7734 67.4485V104.685C65.7734 105.608 66.5241 106.359 67.4479 106.359H104.684C105.608 106.359 106.359 105.608 106.359 104.685V67.4485C106.359 66.522 105.608 65.774 104.684 65.774ZM103.01 103.01H69.1223V69.1229H103.01V103.01Z" fill="white"/>
</svg>
