<svg width="120" height="120" viewBox="0 0 120 120" fill="none" xmlns="http://www.w3.org/2000/svg">
<path d="M47.7719 107.316C47.3058 107.316 46.8509 107.121 46.5272 106.761L38.2891 97.6102L26.2472 95.0428C25.6026 94.906 25.0975 94.4009 24.9579 93.7535L22.3905 81.7116L13.2398 73.4735C12.7486 73.0297 12.5644 72.3404 12.7682 71.7097L16.5802 60L12.7654 48.2902C12.5616 47.6623 12.7458 46.9702 13.237 46.5265L22.3877 38.2884L24.9551 26.2465C25.0919 25.6018 25.597 25.0967 26.2444 24.9572L38.2863 22.3897L46.5244 13.2391C46.9682 12.7479 47.6575 12.5637 48.2882 12.7674L60.0007 16.5795L71.7105 12.7646C72.3412 12.5609 73.0305 12.7451 73.4742 13.2363L81.7123 22.387L93.7542 24.9544C94.3989 25.0911 94.904 25.5963 95.0435 26.2437L97.6109 38.2856L106.762 46.5237C107.253 46.9674 107.437 47.6567 107.233 48.2874L103.421 60L107.236 71.7097C107.44 72.3377 107.256 73.0297 106.764 73.4735L97.6137 81.7116L95.0463 93.7535C94.9096 94.3981 94.4044 94.9032 93.757 95.0428L81.7151 97.6102L73.477 106.761C73.0333 107.252 72.344 107.439 71.7133 107.233L60.0007 103.42L48.2909 107.235C48.1207 107.288 47.9449 107.316 47.7719 107.316ZM28.0082 91.9925L39.5198 94.4483C39.8658 94.5209 40.1784 94.7023 40.4156 94.9646L48.2882 103.711L59.4816 100.066C59.8193 99.9572 60.1821 99.9572 60.5198 100.066L71.7133 103.711L79.5886 94.9646C79.8258 94.7023 80.1384 94.5209 80.4844 94.4483L91.9961 91.9925L94.4519 80.4809C94.5244 80.1349 94.7058 79.8223 94.9682 79.5851L103.714 71.7125L100.07 60.519C99.9607 60.1814 99.9607 59.8186 100.07 59.4809L103.714 48.2874L94.9682 40.4149C94.7058 40.1777 94.5244 39.8651 94.4519 39.5191L91.9961 28.0074L80.4844 25.5516C80.1384 25.479 79.8258 25.2977 79.5886 25.0353L71.7161 16.2893L60.5226 19.9339C60.1849 20.0428 59.8221 20.0428 59.4844 19.9339L48.2909 16.2893L40.4184 25.0353C40.1812 25.2977 39.8686 25.479 39.5226 25.5516L28.0109 28.0074L25.5551 39.5191C25.4826 39.8651 25.3012 40.1777 25.0389 40.4149L16.2928 48.2874L19.9375 59.4809C20.0463 59.8186 20.0463 60.1814 19.9375 60.519L16.2928 71.7125L25.0389 79.5851C25.3012 79.8223 25.4826 80.1349 25.5551 80.4809L28.0082 91.9925Z" fill="white"/>
<path d="M41.382 80.2939C40.9522 80.2939 40.5253 80.1293 40.1988 79.8027C39.5457 79.1497 39.5457 78.0893 40.1988 77.4334L77.4351 40.1972C78.0881 39.5441 79.1485 39.5441 79.8016 40.1972C80.4546 40.8502 80.4546 41.9107 79.8016 42.5665L42.5681 79.8027C42.2388 80.1293 41.8118 80.2939 41.382 80.2939Z" fill="white"/>
<path d="M72.4141 80.294C68.069 80.294 64.5332 76.7582 64.5332 72.413C64.5332 68.0679 68.069 64.5321 72.4141 64.5321C76.7592 64.5321 80.2951 68.0679 80.2951 72.413C80.2951 76.7582 76.7592 80.294 72.4141 80.294ZM72.4141 67.8809C69.9165 67.8809 67.882 69.9126 67.882 72.413C67.882 74.9135 69.9137 76.9451 72.4141 76.9451C74.9146 76.9451 76.9462 74.9135 76.9462 72.413C76.9462 69.9126 74.9118 67.8809 72.4141 67.8809Z" fill="white"/>
<path d="M47.588 55.4679C43.2428 55.4679 39.707 51.9321 39.707 47.587C39.707 43.2419 43.2428 39.7061 47.588 39.7061C51.9331 39.7061 55.4689 43.2419 55.4689 47.587C55.4689 51.9321 51.9331 55.4679 47.588 55.4679ZM47.588 43.0549C45.0903 43.0549 43.0559 45.0865 43.0559 47.587C43.0559 50.0875 45.0903 52.1191 47.588 52.1191C50.0856 52.1191 52.1201 50.0875 52.1201 47.587C52.1201 45.0865 50.0884 43.0549 47.588 43.0549Z" fill="white"/>
</svg>
