<svg width="120" height="120" viewBox="0 0 120 120" fill="none" xmlns="http://www.w3.org/2000/svg">
<path d="M70.0624 21.3014C69.948 21.3014 69.8364 21.3042 69.722 21.3098C65.1508 21.5274 63.8755 24.5637 63.842 26.1377C63.842 26.1516 63.842 26.1656 63.842 26.1767L63.8587 36.4465C63.8587 38.026 63.482 39.5916 62.7648 40.9702C57.7694 50.6037 49.1852 52.8614 47.8792 53.1544H40.6178C39.6941 53.1544 38.9434 53.9051 38.9434 54.8288V91.0967C38.9434 92.0205 39.6941 92.7712 40.6178 92.7712C49.3582 92.7712 49.9192 93.0809 52.2773 94.3786C52.8913 94.7163 53.6531 95.1349 54.6606 95.6205C55.6429 96.0921 56.6029 96.5274 57.5127 96.9098C60.3201 98.0958 63.2894 98.6986 66.3313 98.6986H92.0782C92.1899 98.6986 92.2848 98.6902 92.3545 98.6819C95.5415 98.4893 98.0364 95.9554 98.1703 92.76C98.2234 91.4986 97.8829 90.4633 97.322 89.626C100.288 88.853 102.365 86.2354 102.365 82.9423V81.9767C102.365 80.3972 101.768 79.0186 100.833 77.9191C103.643 77.0316 105.63 74.3777 105.63 71.1572V69.3237C105.63 67.133 104.402 65.3358 102.661 64.1581C104.466 62.7349 105.714 60.653 105.714 58.5516V57.48C105.714 53.5479 102.499 50.347 98.5443 50.347H83.4103C81.5769 50.347 80.2513 49.9646 79.5759 49.2419C79.0429 48.6726 79.0429 48 79.0485 47.88C79.0596 47.8102 79.0569 47.7935 79.0569 47.7153C79.0596 47.1684 79.1489 34.2865 79.0569 31.08C78.9815 28.4818 77.5778 25.5433 75.4764 23.5981C73.8606 22.0884 71.9936 21.3014 70.0624 21.3014ZM67.1908 26.2326C67.2327 25.8586 67.5564 24.7646 69.881 24.653C71.3099 24.5832 72.4792 25.373 73.2048 26.0456C74.6336 27.3684 75.6634 29.4753 75.7136 31.1665C75.8001 34.2056 75.7192 46.6409 75.7136 47.6232C75.6801 48.1256 75.6745 49.8837 77.0503 51.427C78.3871 52.9284 80.5303 53.6902 83.4159 53.6902H98.5499C100.621 53.6902 102.37 55.4233 102.37 57.4744V58.546C102.37 60.4939 99.9341 62.6316 97.7155 62.6316C96.7917 62.6316 96.041 63.3823 96.041 64.306C96.041 65.2298 96.7917 65.9805 97.7155 65.9805C99.8727 65.9805 102.287 67.4093 102.287 69.3181V71.1516C102.287 73.2781 100.768 74.8828 98.7536 74.8828C98.7229 74.8828 98.6922 74.8828 98.6615 74.8856L94.9973 75.0893C94.1964 75.134 93.5406 75.7395 93.4317 76.5349C93.3703 76.9953 93.4987 77.4698 93.7917 77.8298C94.0848 78.1898 94.5145 78.4186 94.9778 78.4493C96.9313 78.5777 99.0215 80.0233 99.0215 81.9712V82.9367C99.0215 85.0047 97.5201 86.5033 95.455 86.5033L91.7824 86.5535C90.9089 86.5647 90.1917 87.2484 90.1359 88.1191C90.0801 88.9898 90.7024 89.76 91.5675 89.8856C91.6987 89.9051 94.9248 90.427 94.8327 92.6121C94.7713 94.094 93.6075 95.2633 92.1257 95.3358C92.0894 95.3386 92.0503 95.3414 92.0141 95.3442H66.3396C63.7471 95.3442 61.2159 94.8307 58.8243 93.8205C57.962 93.4577 57.0522 93.0447 56.1173 92.5954C55.1936 92.1516 54.5071 91.7721 53.8987 91.44C51.1164 89.9079 50.0141 89.4726 42.2978 89.4223V56.4977H47.9685C48.1471 56.4977 48.3257 56.4781 48.5015 56.4419C49.6568 56.1963 59.9266 53.7237 65.7452 42.5051C66.7052 40.6521 67.2131 38.5535 67.2131 36.4381L67.1908 26.2326ZM67.1908 26.2046V26.1712C67.1908 26.1684 67.1908 26.1684 67.1908 26.1684C67.1908 26.1684 67.1908 26.1907 67.1908 26.2046Z" fill="white"/>
<path d="M40.6179 48.0307H15.9537C15.03 48.0307 14.2793 48.7814 14.2793 49.7052V92.8047C14.2793 93.7284 15.03 94.4791 15.9537 94.4791H40.6179C41.5416 94.4791 42.2923 93.7284 42.2923 92.8047V49.7052C42.2923 48.7814 41.5416 48.0307 40.6179 48.0307ZM17.6281 51.3796H38.9435V91.1303H17.6281V51.3796Z" fill="white"/>
</svg>
