<svg width="120" height="120" viewBox="0 0 120 120" fill="none" xmlns="http://www.w3.org/2000/svg">
<path d="M104.931 106.705H15.0701C14.1157 106.705 13.3398 105.932 13.3398 104.975V25.7749C13.3398 24.8205 14.1129 24.0447 15.0701 24.0447H104.931C105.885 24.0447 106.661 24.8205 106.661 25.7749V104.975C106.661 105.929 105.885 106.705 104.931 106.705ZM16.8003 103.245H103.2V27.5051H16.8003V103.245Z" fill="white"/>
<path d="M36.2518 27.5024H24.0564C23.102 27.5024 22.3262 26.7293 22.3262 25.7721V15.0252C22.3262 14.0707 23.102 13.2949 24.0564 13.2949H36.2518C37.2062 13.2949 37.982 14.0679 37.982 15.0252V25.7749C37.982 26.7293 37.2062 27.5024 36.2518 27.5024ZM25.7866 24.0447H34.5215V16.7554H25.7866V24.0447Z" fill="white"/>
<path d="M95.9451 27.5024H83.7498C82.7953 27.5024 82.0195 26.7293 82.0195 25.7721V15.0252C82.0195 14.0707 82.7953 13.2949 83.7498 13.2949H95.9451C96.8995 13.2949 97.6753 14.0679 97.6753 15.0252V25.7749C97.6753 26.7293 96.8995 27.5024 95.9451 27.5024ZM85.48 24.0447H94.2149V16.7554H85.48V24.0447Z" fill="white"/>
<path d="M104.931 40.6577H15.0701C14.1157 40.6577 13.3398 39.8847 13.3398 38.9275C13.3398 37.9703 14.1129 37.1973 15.0701 37.1973H104.931C105.885 37.1973 106.661 37.9703 106.661 38.9275C106.661 39.8847 105.885 40.6577 104.931 40.6577Z" fill="white"/>
<path d="M62.5178 95.4335C61.5941 95.4335 60.8434 94.6828 60.8434 93.7591V53.3247L49.2676 64.3061C48.5978 64.9423 47.5373 64.9144 46.901 64.2447C46.2648 63.5749 46.2927 62.5144 46.9624 61.8781L61.3652 48.2149C61.8508 47.7544 62.5624 47.6261 63.1792 47.8912C63.7931 48.1563 64.1922 48.7591 64.1922 49.4288V93.7591C64.1922 94.6828 63.4415 95.4335 62.5178 95.4335Z" fill="white"/>
</svg>
