<svg width="1440" height="651" viewBox="0 0 1440 651" fill="none" xmlns="http://www.w3.org/2000/svg">
<path d="M156.76 371V313.88H199.64V371H192.52V320.2H163.96V371H156.76ZM310.396 313.88C317.862 313.88 323.302 315.347 326.716 318.28C330.129 321.213 331.836 325.347 331.836 330.68C331.836 333.027 331.436 335.293 330.636 337.48C329.889 339.613 328.636 341.533 326.876 343.24C325.116 344.947 322.769 346.307 319.836 347.32C316.902 348.28 313.302 348.76 309.036 348.76H302.476V371H295.276V313.88H310.396ZM309.756 320.04H302.476V342.6H308.236C311.862 342.6 314.876 342.227 317.276 341.48C319.676 340.68 321.462 339.427 322.636 337.72C323.809 336.013 324.396 333.773 324.396 331C324.396 327.32 323.222 324.573 320.876 322.76C318.529 320.947 314.822 320.04 309.756 320.04ZM473.553 342.36C473.553 346.787 472.993 350.813 471.873 354.44C470.753 358.013 469.073 361.107 466.833 363.72C464.646 366.333 461.9 368.333 458.593 369.72C455.34 371.107 451.553 371.8 447.233 371.8C442.753 371.8 438.86 371.107 435.553 369.72C432.246 368.28 429.5 366.28 427.313 363.72C425.126 361.107 423.5 357.987 422.433 354.36C421.366 350.733 420.833 346.707 420.833 342.28C420.833 336.413 421.793 331.293 423.713 326.92C425.633 322.547 428.54 319.133 432.433 316.68C436.38 314.227 441.34 313 447.313 313C453.02 313 457.82 314.227 461.713 316.68C465.606 319.08 468.54 322.493 470.513 326.92C472.54 331.293 473.553 336.44 473.553 342.36ZM428.433 342.36C428.433 347.16 429.1 351.293 430.433 354.76C431.766 358.227 433.82 360.893 436.593 362.76C439.42 364.627 442.966 365.56 447.233 365.56C451.553 365.56 455.073 364.627 457.793 362.76C460.566 360.893 462.62 358.227 463.953 354.76C465.286 351.293 465.953 347.16 465.953 342.36C465.953 335.16 464.46 329.533 461.473 325.48C458.486 321.373 453.766 319.32 447.313 319.32C442.993 319.32 439.42 320.253 436.593 322.12C433.82 323.933 431.766 326.573 430.433 330.04C429.1 333.453 428.433 337.56 428.433 342.36ZM594.133 313.08V320.12C600.32 320.227 605.2 321.24 608.773 323.16C612.346 325.08 614.88 327.64 616.373 330.84C617.866 333.987 618.613 337.507 618.613 341.4C618.613 343.96 618.213 346.52 617.413 349.08C616.666 351.587 615.36 353.88 613.493 355.96C611.626 357.987 609.12 359.64 605.973 360.92C602.826 362.2 598.88 362.893 594.133 363V371.8H587.013V363C582.16 362.893 578.133 362.2 574.933 360.92C571.786 359.587 569.306 357.88 567.493 355.8C565.68 353.667 564.4 351.347 563.653 348.84C562.906 346.333 562.533 343.853 562.533 341.4C562.533 338.573 562.933 335.907 563.733 333.4C564.586 330.84 565.946 328.6 567.813 326.68C569.733 324.707 572.266 323.133 575.413 321.96C578.56 320.787 582.426 320.173 587.013 320.12V313.08H594.133ZM587.013 326.2C582.746 326.307 579.333 327 576.773 328.28C574.266 329.56 572.48 331.32 571.413 333.56C570.346 335.747 569.813 338.333 569.813 341.32C569.813 344.467 570.4 347.213 571.573 349.56C572.8 351.853 574.666 353.64 577.173 354.92C579.733 356.2 583.013 356.92 587.013 357.08V326.2ZM594.133 357.08C598.24 356.92 601.546 356.173 604.053 354.84C606.613 353.507 608.453 351.693 609.573 349.4C610.746 347.053 611.333 344.36 611.333 341.32C611.333 338.28 610.8 335.667 609.733 333.48C608.666 331.24 606.88 329.507 604.373 328.28C601.866 327 598.453 326.307 594.133 326.2V357.08ZM734.99 319.4C731.95 319.4 729.203 319.933 726.75 321C724.297 322.013 722.217 323.533 720.51 325.56C718.803 327.533 717.497 329.96 716.59 332.84C715.683 335.667 715.23 338.867 715.23 342.44C715.23 347.133 715.95 351.213 717.39 354.68C718.883 358.147 721.07 360.813 723.95 362.68C726.883 364.547 730.537 365.48 734.91 365.48C737.417 365.48 739.79 365.267 742.03 364.84C744.27 364.413 746.457 363.88 748.59 363.24V369.48C746.457 370.28 744.243 370.867 741.95 371.24C739.71 371.613 737.017 371.8 733.87 371.8C728.057 371.8 723.203 370.6 719.31 368.2C715.417 365.8 712.483 362.387 710.51 357.96C708.59 353.533 707.63 348.333 707.63 342.36C707.63 338.04 708.217 334.093 709.39 330.52C710.617 326.947 712.377 323.853 714.67 321.24C717.017 318.627 719.897 316.627 723.31 315.24C726.723 313.8 730.643 313.08 735.07 313.08C738.003 313.08 740.83 313.373 743.55 313.96C746.27 314.547 748.697 315.373 750.83 316.44L747.95 322.52C746.19 321.72 744.217 321 742.03 320.36C739.897 319.72 737.55 319.4 734.99 319.4ZM859.137 371H851.937V320.2H834.097V313.88H876.897V320.2H859.137V371ZM980.63 313.88C988.097 313.88 993.537 315.347 996.95 318.28C1000.36 321.213 1002.07 325.347 1002.07 330.68C1002.07 333.027 1001.67 335.293 1000.87 337.48C1000.12 339.613 998.87 341.533 997.11 343.24C995.35 344.947 993.003 346.307 990.07 347.32C987.137 348.28 983.537 348.76 979.27 348.76H972.71V371H965.51V313.88H980.63ZM979.99 320.04H972.71V342.6H978.47C982.097 342.6 985.11 342.227 987.51 341.48C989.91 340.68 991.697 339.427 992.87 337.72C994.043 336.013 994.63 333.773 994.63 331C994.63 327.32 993.457 324.573 991.11 322.76C988.763 320.947 985.057 320.04 979.99 320.04ZM1143.79 342.36C1143.79 346.787 1143.23 350.813 1142.11 354.44C1140.99 358.013 1139.31 361.107 1137.07 363.72C1134.88 366.333 1132.13 368.333 1128.83 369.72C1125.57 371.107 1121.79 371.8 1117.47 371.8C1112.99 371.8 1109.09 371.107 1105.79 369.72C1102.48 368.28 1099.73 366.28 1097.55 363.72C1095.36 361.107 1093.73 357.987 1092.67 354.36C1091.6 350.733 1091.07 346.707 1091.07 342.28C1091.07 336.413 1092.03 331.293 1093.95 326.92C1095.87 322.547 1098.77 319.133 1102.67 316.68C1106.61 314.227 1111.57 313 1117.55 313C1123.25 313 1128.05 314.227 1131.95 316.68C1135.84 319.08 1138.77 322.493 1140.75 326.92C1142.77 331.293 1143.79 336.44 1143.79 342.36ZM1098.67 342.36C1098.67 347.16 1099.33 351.293 1100.67 354.76C1102 358.227 1104.05 360.893 1106.83 362.76C1109.65 364.627 1113.2 365.56 1117.47 365.56C1121.79 365.56 1125.31 364.627 1128.03 362.76C1130.8 360.893 1132.85 358.227 1134.19 354.76C1135.52 351.293 1136.19 347.16 1136.19 342.36C1136.19 335.16 1134.69 329.533 1131.71 325.48C1128.72 321.373 1124 319.32 1117.55 319.32C1113.23 319.32 1109.65 320.253 1106.83 322.12C1104.05 323.933 1102 326.573 1100.67 330.04C1099.33 333.453 1098.67 337.56 1098.67 342.36ZM1275.41 296.12C1275.19 298.787 1274.53 301.027 1273.41 302.84C1272.34 304.653 1270.74 306.013 1268.61 306.92C1266.47 307.827 1263.7 308.28 1260.29 308.28C1256.82 308.28 1254.02 307.827 1251.89 306.92C1249.81 306.013 1248.29 304.68 1247.33 302.92C1246.37 301.107 1245.78 298.84 1245.57 296.12H1252.13C1252.39 299 1253.14 300.947 1254.37 301.96C1255.65 302.92 1257.67 303.4 1260.45 303.4C1262.9 303.4 1264.82 302.893 1266.21 301.88C1267.65 300.813 1268.5 298.893 1268.77 296.12H1275.41ZM1236.53 313.88H1243.25V345.24C1243.25 346.573 1243.22 348.04 1243.17 349.64C1243.17 351.187 1243.14 352.733 1243.09 354.28C1243.03 355.827 1242.95 357.213 1242.85 358.44C1242.79 359.613 1242.74 360.52 1242.69 361.16H1243.01L1274.45 313.88H1282.45V371H1275.73V339.96C1275.73 338.52 1275.75 336.973 1275.81 335.32C1275.86 333.613 1275.91 331.987 1275.97 330.44C1276.07 328.84 1276.15 327.427 1276.21 326.2C1276.26 324.973 1276.31 324.067 1276.37 323.48H1276.05L1244.53 371H1236.53V313.88Z" fill="white" fill-opacity="0.05"/>
<path d="M974.01 622V564.88H1016.89V622H1009.77V571.2H981.21V622H974.01ZM1127.65 564.88C1135.11 564.88 1140.55 566.347 1143.97 569.28C1147.38 572.213 1149.09 576.347 1149.09 581.68C1149.09 584.027 1148.69 586.293 1147.89 588.48C1147.14 590.613 1145.89 592.533 1144.13 594.24C1142.37 595.947 1140.02 597.307 1137.09 598.32C1134.15 599.28 1130.55 599.76 1126.29 599.76H1119.73V622H1112.53V564.88H1127.65ZM1127.01 571.04H1119.73V593.6H1125.49C1129.11 593.6 1132.13 593.227 1134.53 592.48C1136.93 591.68 1138.71 590.427 1139.89 588.72C1141.06 587.013 1141.65 584.773 1141.65 582C1141.65 578.32 1140.47 575.573 1138.13 573.76C1135.78 571.947 1132.07 571.04 1127.01 571.04ZM1290.8 593.36C1290.8 597.787 1290.24 601.813 1289.12 605.44C1288 609.013 1286.32 612.107 1284.08 614.72C1281.9 617.333 1279.15 619.333 1275.84 620.72C1272.59 622.107 1268.8 622.8 1264.48 622.8C1260 622.8 1256.11 622.107 1252.8 620.72C1249.5 619.28 1246.75 617.28 1244.56 614.72C1242.38 612.107 1240.75 608.987 1239.68 605.36C1238.62 601.733 1238.08 597.707 1238.08 593.28C1238.08 587.413 1239.04 582.293 1240.96 577.92C1242.88 573.547 1245.79 570.133 1249.68 567.68C1253.63 565.227 1258.59 564 1264.56 564C1270.27 564 1275.07 565.227 1278.96 567.68C1282.86 570.08 1285.79 573.493 1287.76 577.92C1289.79 582.293 1290.8 587.44 1290.8 593.36ZM1245.68 593.36C1245.68 598.16 1246.35 602.293 1247.68 605.76C1249.02 609.227 1251.07 611.893 1253.84 613.76C1256.67 615.627 1260.22 616.56 1264.48 616.56C1268.8 616.56 1272.32 615.627 1275.04 613.76C1277.82 611.893 1279.87 609.227 1281.2 605.76C1282.54 602.293 1283.2 598.16 1283.2 593.36C1283.2 586.16 1281.71 580.533 1278.72 576.48C1275.74 572.373 1271.02 570.32 1264.56 570.32C1260.24 570.32 1256.67 571.253 1253.84 573.12C1251.07 574.933 1249.02 577.573 1247.68 581.04C1246.35 584.453 1245.68 588.56 1245.68 593.36ZM1411.38 564.08V571.12C1417.57 571.227 1422.45 572.24 1426.02 574.16C1429.6 576.08 1432.13 578.64 1433.62 581.84C1435.12 584.987 1435.86 588.507 1435.86 592.4C1435.86 594.96 1435.46 597.52 1434.66 600.08C1433.92 602.587 1432.61 604.88 1430.74 606.96C1428.88 608.987 1426.37 610.64 1423.22 611.92C1420.08 613.2 1416.13 613.893 1411.38 614V622.8H1404.26V614C1399.41 613.893 1395.38 613.2 1392.18 611.92C1389.04 610.587 1386.56 608.88 1384.74 606.8C1382.93 604.667 1381.65 602.347 1380.9 599.84C1380.16 597.333 1379.78 594.853 1379.78 592.4C1379.78 589.573 1380.18 586.907 1380.98 584.4C1381.84 581.84 1383.2 579.6 1385.06 577.68C1386.98 575.707 1389.52 574.133 1392.66 572.96C1395.81 571.787 1399.68 571.173 1404.26 571.12V564.08H1411.38ZM1404.26 577.2C1400 577.307 1396.58 578 1394.02 579.28C1391.52 580.56 1389.73 582.32 1388.66 584.56C1387.6 586.747 1387.06 589.333 1387.06 592.32C1387.06 595.467 1387.65 598.213 1388.82 600.56C1390.05 602.853 1391.92 604.64 1394.42 605.92C1396.98 607.2 1400.26 607.92 1404.26 608.08V577.2ZM1411.38 608.08C1415.49 607.92 1418.8 607.173 1421.3 605.84C1423.86 604.507 1425.7 602.693 1426.82 600.4C1428 598.053 1428.58 595.36 1428.58 592.32C1428.58 589.28 1428.05 586.667 1426.98 584.48C1425.92 582.24 1424.13 580.507 1421.62 579.28C1419.12 578 1415.7 577.307 1411.38 577.2V608.08Z" fill="white" fill-opacity="0.05"/>
<path d="M32.24 30.4C29.2 30.4 26.4533 30.9333 24 32C21.5467 33.0133 19.4667 34.5333 17.76 36.56C16.0533 38.5333 14.7467 40.96 13.84 43.84C12.9333 46.6667 12.48 49.8667 12.48 53.44C12.48 58.1333 13.2 62.2133 14.64 65.68C16.1333 69.1467 18.32 71.8133 21.2 73.68C24.1333 75.5467 27.7867 76.48 32.16 76.48C34.6667 76.48 37.04 76.2667 39.28 75.84C41.52 75.4133 43.7067 74.88 45.84 74.24V80.48C43.7067 81.28 41.4933 81.8667 39.2 82.24C36.96 82.6133 34.2667 82.8 31.12 82.8C25.3067 82.8 20.4533 81.6 16.56 79.2C12.6667 76.8 9.73333 73.3867 7.76 68.96C5.84 64.5333 4.88 59.3333 4.88 53.36C4.88 49.04 5.46667 45.0933 6.64 41.52C7.86667 37.9467 9.62667 34.8533 11.92 32.24C14.2667 29.6267 17.1467 27.6267 20.56 26.24C23.9733 24.8 27.8933 24.08 32.32 24.08C35.2533 24.08 38.08 24.3733 40.8 24.96C43.52 25.5467 45.9467 26.3733 48.08 27.44L45.2 33.52C43.44 32.72 41.4667 32 39.28 31.36C37.1467 30.72 34.8 30.4 32.24 30.4ZM156.387 82H149.187V31.2H131.347V24.88H174.147V31.2H156.387V82ZM277.88 24.88C285.347 24.88 290.787 26.3467 294.2 29.28C297.613 32.2133 299.32 36.3467 299.32 41.68C299.32 44.0267 298.92 46.2933 298.12 48.48C297.373 50.6133 296.12 52.5333 294.36 54.24C292.6 55.9467 290.253 57.3067 287.32 58.32C284.387 59.28 280.787 59.76 276.52 59.76H269.96V82H262.76V24.88H277.88ZM277.24 31.04H269.96V53.6H275.72C279.347 53.6 282.36 53.2267 284.76 52.48C287.16 51.68 288.947 50.4267 290.12 48.72C291.293 47.0133 291.88 44.7733 291.88 42C291.88 38.32 290.707 35.5733 288.36 33.76C286.013 31.9467 282.307 31.04 277.24 31.04ZM441.038 53.36C441.038 57.7867 440.478 61.8133 439.358 65.44C438.238 69.0133 436.558 72.1067 434.318 74.72C432.131 77.3333 429.384 79.3333 426.078 80.72C422.824 82.1067 419.038 82.8 414.718 82.8C410.238 82.8 406.344 82.1067 403.038 80.72C399.731 79.28 396.984 77.28 394.798 74.72C392.611 72.1067 390.984 68.9867 389.918 65.36C388.851 61.7333 388.318 57.7067 388.318 53.28C388.318 47.4133 389.278 42.2933 391.198 37.92C393.118 33.5467 396.024 30.1333 399.918 27.68C403.864 25.2267 408.824 24 414.798 24C420.504 24 425.304 25.2267 429.198 27.68C433.091 30.08 436.024 33.4933 437.998 37.92C440.024 42.2933 441.038 47.44 441.038 53.36ZM395.918 53.36C395.918 58.16 396.584 62.2933 397.918 65.76C399.251 69.2267 401.304 71.8933 404.078 73.76C406.904 75.6267 410.451 76.56 414.718 76.56C419.038 76.56 422.558 75.6267 425.278 73.76C428.051 71.8933 430.104 69.2267 431.438 65.76C432.771 62.2933 433.438 58.16 433.438 53.36C433.438 46.16 431.944 40.5333 428.958 36.48C425.971 32.3733 421.251 30.32 414.798 30.32C410.478 30.32 406.904 31.2533 404.078 33.12C401.304 34.9333 399.251 37.5733 397.918 41.04C396.584 44.4533 395.918 48.56 395.918 53.36ZM572.658 7.12C572.444 9.78666 571.778 12.0267 570.658 13.84C569.591 15.6533 567.991 17.0133 565.858 17.92C563.724 18.8267 560.951 19.28 557.538 19.28C554.071 19.28 551.271 18.8267 549.138 17.92C547.058 17.0133 545.538 15.68 544.578 13.92C543.618 12.1067 543.031 9.84 542.818 7.12H549.378C549.644 10 550.391 11.9467 551.618 12.96C552.898 13.92 554.924 14.4 557.698 14.4C560.151 14.4 562.071 13.8933 563.458 12.88C564.898 11.8133 565.751 9.89333 566.018 7.12H572.658ZM533.778 24.88H540.498V56.24C540.498 57.5733 540.471 59.04 540.418 60.64C540.418 62.1867 540.391 63.7333 540.338 65.28C540.284 66.8267 540.204 68.2133 540.098 69.44C540.044 70.6133 539.991 71.52 539.938 72.16H540.258L571.698 24.88H579.698V82H572.977V50.96C572.977 49.52 573.004 47.9733 573.058 46.32C573.111 44.6133 573.164 42.9867 573.218 41.44C573.324 39.84 573.404 38.4267 573.458 37.2C573.511 35.9733 573.564 35.0667 573.618 34.48H573.298L541.778 82H533.778V24.88Z" fill="white" fill-opacity="0.05"/>
</svg>
